<?xml version="1.0" standalone="no"?>
<!DOCTYPE svg PUBLIC "-//W3C//DTD SVG 20010904//EN"
 "http://www.w3.org/TR/2001/REC-SVG-20010904/DTD/svg10.dtd">
<svg version="1.0" xmlns="http://www.w3.org/2000/svg"
 width="376.000000pt" height="548.000000pt" viewBox="0 0 376.000000 548.000000"
 preserveAspectRatio="xMidYMid meet">

<g transform="translate(0.000000,548.000000) scale(0.100000,-0.100000)"
fill="#000000" stroke="none">
<path d="M570 5345 c-95 -17 -149 -36 -204 -74 -93 -64 -156 -159 -194 -291
-15 -49 -16 -308 -19 -2518 l-3 -2462 65 0 65 0 0 2428 c0 1716 3 2446 11
2488 25 134 112 242 231 284 55 20 88 24 261 28 136 3 202 1 211 -7 7 -6 16
-34 19 -62 8 -68 34 -116 80 -153 l39 -31 719 -3 c509 -2 732 1 762 9 78 21
137 105 137 194 0 17 5 36 12 43 16 16 346 16 420 1 70 -15 161 -64 200 -108
45 -51 86 -146 98 -226 14 -98 13 -115 -7 -122 -19 -7 -33 -22 -33 -37 0 -5 8
-2 18 7 10 10 22 17 25 17 4 0 7 -125 7 -279 l0 -278 -25 -27 c-28 -30 -25
-50 6 -41 18 6 19 -4 18 -352 0 -197 -3 -367 -5 -378 -6 -22 -52 -46 -391
-200 l-62 -28 -5 -61 c-16 -176 -37 -404 -40 -423 -5 -35 7 -27 34 22 14 25
28 45 32 45 5 0 8 6 8 14 0 8 6 21 13 28 8 7 17 26 21 42 4 15 16 30 26 33 11
3 53 51 95 107 42 55 80 106 85 113 6 7 10 17 10 23 0 5 5 10 11 10 8 0 8 5
-1 15 -13 16 -8 27 34 71 12 12 29 30 38 40 9 11 23 25 30 31 7 7 22 22 32 33
10 10 22 17 27 15 13 -9 5 -1278 -9 -1283 -8 -2 -7 -10 3 -26 12 -17 15 -60
14 -202 0 -180 -4 -228 -19 -219 -5 3 -28 -5 -52 -16 -23 -12 -54 -26 -68 -31
-14 -6 -40 -17 -57 -26 l-33 -15 0 -137 c0 -75 -3 -193 -6 -261 l-6 -124 23
26 c32 36 60 70 137 167 36 45 69 82 74 82 10 0 10 -264 1 -762 -5 -297 -9
-368 -20 -368 -7 0 -13 11 -13 25 0 28 -45 204 -85 335 -15 47 -29 94 -32 105
-2 11 -9 29 -13 40 -5 11 -11 29 -14 40 -3 11 -3 -7 0 -40 3 -33 9 -64 14 -70
4 -5 10 -31 14 -56 6 -38 4 -48 -9 -53 -12 -4 -15 -1 -10 13 7 23 -16 69 -33
63 -6 -2 -12 2 -13 10 -12 155 -19 219 -25 247 -5 24 -3 32 5 27 7 -5 11 0 11
13 0 36 -18 31 -34 -9 -9 -22 -16 -49 -16 -60 0 -10 -4 -22 -10 -25 -5 -3 -10
-17 -10 -30 0 -13 -6 -39 -14 -57 -8 -18 -29 -80 -46 -138 -18 -58 -36 -109
-40 -114 -11 -11 25 -41 319 -261 40 -30 54 -45 42 -45 -6 0 -11 -5 -11 -11 0
-7 10 -9 25 -5 23 6 24 5 15 -20 -20 -51 -16 -54 65 -54 l75 0 -1 2078 c0
1142 -4 2255 -8 2472 -7 364 -10 400 -29 461 -43 131 -138 240 -257 295 -117
54 -125 54 -1454 53 -961 -1 -1242 -4 -1301 -14z"/>
<path d="M2877 4006 c-4 -10 -1 -13 9 -9 7 3 14 9 14 14 0 14 -17 10 -23 -5z"/>
<path d="M2895 3347 c-4 -10 -5 -21 -1 -24 10 -10 18 4 13 24 -4 17 -4 17 -12
0z"/>
<path d="M2943 2610 c-9 -13 -9 -21 -2 -26 13 -7 15 -5 23 24 9 27 -5 29 -21
2z"/>
<path d="M2392 2598 c-7 -7 -12 -19 -12 -27 0 -11 5 -8 16 7 18 25 15 39 -4
20z"/>
<path d="M2790 2052 c0 -8 61 -63 180 -162 41 -34 81 -76 88 -93 l13 -31 15
23 c12 17 13 25 4 36 -7 8 -17 15 -22 15 -9 0 -66 42 -113 83 -11 9 -42 35
-70 58 -27 23 -60 50 -72 60 -13 10 -23 15 -23 11z"/>
<path d="M2473 1853 c-3 -10 -8 -21 -10 -25 -2 -5 0 -8 4 -8 14 0 34 38 23 45
-6 4 -13 -2 -17 -12z"/>
<path d="M3378 1773 c12 -2 30 -2 40 0 9 3 -1 5 -23 4 -22 0 -30 -2 -17 -4z"/>
<path d="M2945 1205 c28 -26 72 -66 99 -88 133 -113 167 -150 161 -174 -7 -29
19 -32 35 -4 15 29 12 41 -10 41 -11 0 -20 4 -20 8 0 4 -33 35 -72 69 -40 34
-100 88 -134 121 -33 33 -72 63 -85 66 -19 6 -13 -3 26 -39z"/>
<path d="M2576 1074 c-9 -22 -8 -24 9 -24 8 0 15 6 15 14 0 22 -17 28 -24 10z"/>
<path d="M3167 904 c4 -12 0 -14 -21 -8 -22 5 -25 3 -20 -11 6 -15 4 -16 -14
-6 -28 15 -35 14 -28 -4 4 -12 0 -14 -19 -9 -21 5 -24 3 -19 -10 5 -14 2 -16
-21 -10 -22 5 -26 4 -20 -6 6 -10 2 -11 -20 -6 -22 6 -26 4 -22 -9 5 -12 1
-14 -18 -9 -15 4 -25 2 -25 -5 0 -6 -9 -11 -20 -11 -11 0 -20 -5 -20 -11 0 -6
-9 -9 -20 -6 -12 3 -20 0 -20 -8 0 -9 -8 -11 -22 -8 -13 3 -20 2 -16 -2 4 -4
2 -13 -6 -19 -11 -9 -11 -46 -2 -221 7 -116 15 -203 18 -195 9 21 20 106 23
168 1 32 8 59 19 70 9 10 16 23 16 28 0 5 18 17 41 27 29 13 44 27 55 53 8 20
13 43 10 51 -6 15 40 62 60 63 6 0 27 13 45 30 19 16 45 32 59 35 14 4 31 11
37 17 18 14 16 48 -2 48 -9 0 -12 -6 -8 -16z"/>
<path d="M3260 770 c0 -11 5 -20 10 -20 6 0 10 -11 10 -25 0 -14 5 -25 11 -25
7 0 9 8 4 23 -3 12 -9 32 -12 45 -7 27 -23 29 -23 2z"/>
<path d="M3005 629 c-4 -6 -5 -12 -2 -15 2 -3 7 2 10 11 7 17 1 20 -8 4z"/>
<path d="M2776 294 c-8 -22 -7 -34 3 -34 12 0 21 39 11 45 -4 3 -11 -2 -14
-11z"/>
<path d="M2740 250 c0 -5 5 -10 10 -10 6 0 10 5 10 10 0 6 -4 10 -10 10 -5 0
-10 -4 -10 -10z"/>
<path d="M2465 140 c-3 -5 -14 -10 -24 -10 -16 0 -16 -4 -2 -65 8 -36 18 -65
22 -65 11 0 18 64 8 75 -6 6 1 13 19 20 25 9 28 13 21 33 -9 23 -33 30 -44 12z"/>
<path d="M2681 104 c0 -11 3 -14 6 -6 3 7 2 16 -1 19 -3 4 -6 -2 -5 -13z"/>
<path d="M2656 73 c-3 -10 -9 -24 -12 -30 -3 -7 -1 -13 4 -13 5 0 13 12 16 26
8 30 2 44 -8 17z"/>
<path d="M3390 49 c0 -7 -10 -9 -25 -5 -19 5 -25 2 -25 -10 0 -12 -6 -14 -32
-9 -29 7 -31 6 -16 -9 10 -9 33 -16 57 -16 33 0 43 5 61 30 l21 30 -20 0 c-12
0 -21 -5 -21 -11z"/>
<path d="M3238 3 c6 -2 18 -2 25 0 6 3 1 5 -13 5 -14 0 -19 -2 -12 -5z"/>
</g>
</svg>
