<?xml version="1.0" standalone="no"?>
<!DOCTYPE svg PUBLIC "-//W3C//DTD SVG 20010904//EN"
 "http://www.w3.org/TR/2001/REC-SVG-20010904/DTD/svg10.dtd">
<svg version="1.0" xmlns="http://www.w3.org/2000/svg"
 width="376.000000pt" height="548.000000pt" viewBox="0 0 376.000000 548.000000"
 preserveAspectRatio="xMidYMid meet">

<g transform="translate(0.000000,548.000000) scale(0.100000,-0.100000)"
fill="#000000" stroke="none">
<path d="M570 5345 c-95 -17 -149 -36 -204 -74 -93 -64 -156 -159 -194 -291
-15 -49 -16 -308 -19 -2518 l-3 -2462 445 0 c389 0 445 2 445 15 0 8 3 15 8
15 4 0 14 12 23 28 8 15 47 49 87 75 39 26 74 52 77 58 4 5 -8 14 -25 20 -17
6 -29 16 -28 23 6 20 172 96 258 117 83 21 114 35 106 48 -2 3 -7 69 -11 146
-4 77 -11 148 -16 157 -5 9 -9 21 -8 25 1 4 0 10 -1 13 -1 3 -3 25 -5 50 -1
25 -6 53 -10 63 -5 12 -2 22 10 31 14 10 15 18 6 52 -6 22 -13 94 -16 160 -7
179 -15 276 -25 309 -7 26 -10 58 -11 115 -1 43 -41 323 -49 345 -6 15 -10 30
-10 35 0 13 87 37 185 51 57 8 94 18 102 28 16 23 160 29 169 8 3 -10 25 -18
57 -22 112 -13 193 -29 220 -42 23 -12 26 -17 17 -33 -6 -11 -24 -129 -40
-262 l-29 -243 20 -16 c20 -15 20 -17 5 -52 -8 -20 -19 -37 -24 -37 -14 0 -22
-53 -10 -67 5 -7 6 -18 1 -25 -4 -7 -15 -89 -23 -181 -13 -136 -14 -170 -3
-179 9 -7 10 -15 2 -30 -19 -35 -29 -138 -16 -159 9 -15 9 -21 0 -27 -8 -5
-11 -42 -11 -110 0 -118 -4 -113 112 -143 80 -20 95 -31 76 -54 -16 -19 2 -45
32 -45 11 0 34 -12 51 -26 25 -21 27 -25 11 -24 -33 4 -37 1 -23 -16 12 -15
11 -16 -11 -9 -14 4 -31 10 -37 12 -7 3 -13 1 -13 -4 0 -11 55 -53 69 -53 6 0
-1 -11 -14 -24 -22 -22 -31 -24 -90 -21 -42 3 -64 1 -60 -5 3 -6 -1 -10 -9
-10 -23 0 -19 -17 5 -23 12 -3 19 -10 16 -15 -3 -4 7 -6 23 -4 19 3 39 -3 59
-17 29 -21 34 -21 715 -21 l686 0 -1 2078 c0 1142 -4 2255 -8 2472 -7 364 -10
400 -29 461 -43 131 -138 240 -257 295 -117 54 -125 54 -1454 53 -961 -1
-1242 -4 -1301 -14z m434 -147 c3 -13 6 -32 6 -43 0 -45 24 -102 55 -131 32
-29 33 -35 35 -110 1 -43 1 -106 1 -139 -1 -50 -3 -57 -13 -40 -6 11 -48 76
-93 145 -140 213 -167 259 -160 270 4 6 13 9 20 6 7 -2 16 2 19 10 8 21 67 54
97 54 19 0 28 -6 33 -22z m-392 -13 c20 -14 44 -22 52 -19 10 4 16 1 16 -9 0
-8 -42 -51 -92 -95 l-93 -81 -17 67 c-28 107 -26 116 30 140 61 26 61 26 104
-3z m2466 -2 c-21 -2 -57 -2 -80 0 -24 2 -7 4 37 4 44 0 63 -2 43 -4z m-38
-113 c0 -6 -33 -9 -82 -8 l-83 2 80 6 c44 3 81 7 83 8 1 1 2 -2 2 -8z m-2290
-155 c5 -38 16 -115 24 -170 8 -55 18 -122 22 -150 4 -27 5 -48 2 -45 -30 31
-278 334 -278 341 0 4 39 41 88 81 48 40 94 79 102 87 16 16 15 22 40 -144z
m2633 148 c-18 -2 -48 -2 -65 0 -18 2 -4 4 32 4 36 0 50 -2 33 -4z m-373 -43
c0 -5 -5 -10 -11 -10 -5 0 -7 5 -4 10 3 6 8 10 11 10 2 0 4 -4 4 -10z m-123
-29 c6 0 15 -10 18 -21 8 -25 55 -28 55 -4 0 8 4 12 10 9 5 -3 -48 -91 -118
-195 l-127 -189 -3 67 c-2 37 2 103 7 146 6 44 11 104 11 135 l0 56 68 -1 c37
-1 72 -2 79 -3z m300 -28 c-3 -10 -5 -4 -5 12 0 17 2 24 5 18 2 -7 2 -21 0
-30z m-1822 -70 c22 -43 41 -81 43 -84 2 -6 -232 -129 -245 -129 -5 0 -3 151
4 223 l6 67 76 0 77 0 39 -77z m101 55 c-3 -13 -6 -32 -6 -43 0 -17 -2 -17
-13 -5 -7 8 -19 27 -25 43 -11 26 -11 27 19 27 28 0 31 -3 25 -22z m334 12 c0
-5 -5 -10 -11 -10 -6 0 -25 -6 -42 -14 -18 -8 -57 -23 -87 -34 -30 -11 -79
-30 -109 -41 l-53 -22 6 38 c4 21 9 50 12 66 l6 27 139 0 c86 0 139 -4 139
-10z m390 -2 c0 -13 -69 -201 -100 -273 -9 -22 -32 -83 -50 -135 -36 -102 -37
-106 -45 -98 -11 10 -113 433 -106 440 6 6 208 61 261 71 14 2 28 5 33 6 4 0
7 -5 7 -11z m378 -15 c-7 -16 -20 -42 -29 -58 -16 -30 -107 -203 -165 -315
l-29 -55 -12 125 c-7 69 -17 167 -23 218 -5 52 -8 98 -4 103 3 5 66 9 139 9
l135 0 -12 -27z m-1643 -108 c44 -60 94 -129 112 -153 18 -24 33 -47 33 -50 0
-7 -155 -107 -182 -117 -14 -5 -17 5 -22 72 -4 43 -11 110 -16 148 -16 124
-22 231 -13 220 5 -5 45 -59 88 -120z m-578 83 c18 -18 33 -38 33 -46 0 -9
-23 -40 -52 -70 l-51 -54 6 69 c8 83 17 133 25 133 3 0 21 -14 39 -32z m2331
-193 c-12 -245 -15 -255 -77 -255 -20 0 -71 -5 -113 -12 -79 -12 -99 -8 -81
14 6 7 22 33 35 58 14 25 55 97 90 160 36 63 75 133 88 155 38 69 62 106 66
103 2 -2 -2 -103 -8 -223z m411 173 c-4 -24 -22 -114 -39 -201 -24 -126 -36
-166 -56 -193 l-26 -34 -104 0 c-57 0 -104 2 -104 6 0 6 228 323 245 340 5 6
28 36 49 67 22 32 40 57 41 57 2 0 -1 -19 -6 -42z m95 10 c14 23 41 13 53 -19
10 -25 17 -30 33 -26 11 3 20 3 20 1 0 -2 -21 -30 -47 -62 -27 -32 -66 -81
-88 -108 -22 -27 -46 -56 -54 -64 -13 -13 -14 -13 -8 3 4 11 16 58 27 105 11
48 25 101 30 118 6 17 10 44 11 60 1 28 1 28 8 4 5 -17 9 -21 15 -12z m151 13
c-3 -6 -11 -11 -16 -11 -5 0 -4 6 3 14 14 16 24 13 13 -3z m-1056 -186 c30
-238 33 -277 24 -286 -5 -5 -36 -13 -68 -19 -33 -6 -79 -15 -103 -20 -43 -10
-82 -13 -82 -6 0 4 25 67 49 121 9 22 48 119 87 215 l69 175 7 -50 c4 -27 12
-86 17 -130z m1193 122 c-5 -7 -17 -37 -26 -67 -18 -58 -62 -181 -76 -215 -5
-11 -11 -29 -15 -40 -11 -38 -63 -85 -93 -85 -51 0 -152 13 -152 19 0 3 19 26
41 51 84 92 185 204 216 239 17 20 45 52 62 71 17 19 31 39 31 43 0 5 5 5 10
2 7 -4 7 -11 2 -18z m-1682 -32 c-5 -22 -16 -69 -24 -105 -22 -93 -43 -183
-63 -275 -10 -44 -23 -79 -28 -79 -5 1 -22 30 -37 65 -99 238 -130 321 -122
329 8 8 276 109 281 106 1 -1 -3 -19 -7 -41z m-1324 -155 c9 -30 20 -66 24
-80 8 -25 47 -160 56 -192 3 -10 2 -18 -3 -18 -14 0 -265 258 -262 268 2 6 35
45 73 87 l69 77 14 -44 c7 -23 20 -68 29 -98z m1402 74 c10 -40 56 -210 74
-274 6 -19 11 -48 12 -65 1 -28 -1 -30 -84 -52 -47 -12 -98 -27 -114 -32 -16
-6 -32 -8 -36 -6 -6 4 34 167 69 280 5 17 20 71 32 122 24 95 31 98 47 27z
m-438 -80 c-6 -14 -10 -42 -10 -62 0 -56 -33 -352 -39 -352 -3 0 -13 12 -22
28 -82 141 -119 205 -119 208 0 2 -13 26 -30 54 -35 60 -37 76 -9 85 11 4 66
29 122 55 96 45 102 47 109 29 4 -10 3 -31 -2 -45z m-642 -214 c2 -5 -30 -34
-70 -65 -66 -52 -73 -55 -85 -39 -7 10 -13 26 -13 37 0 11 -11 65 -24 121 -13
55 -27 121 -31 145 l-7 45 113 -118 c63 -65 115 -122 117 -126z m702 199 c0
-11 34 -89 112 -258 21 -46 37 -89 35 -95 -3 -7 -45 -26 -93 -43 -49 -17 -97
-34 -106 -38 -23 -9 -23 0 2 195 30 238 32 250 41 250 5 0 9 -5 9 -11z m-375
-333 c6 -137 5 -177 -4 -172 -20 12 -222 288 -219 298 2 5 48 35 103 68 l100
58 7 -36 c3 -20 9 -118 13 -216z m219 -140 c-33 -19 -167 -76 -171 -73 -3 3
-6 354 -4 392 1 5 44 -62 97 -149 90 -147 95 -160 78 -170z m2146 265 c0 -25
-3 -28 -26 -23 l-25 5 22 23 c28 30 29 30 29 -5z m-3019 -87 c54 -47 99 -88
99 -92 0 -17 -100 -106 -109 -97 -5 6 -27 62 -49 125 -22 63 -43 123 -47 133
-4 9 -4 17 0 17 3 0 51 -38 106 -86z m389 -109 c12 -77 25 -157 30 -178 4 -20
5 -39 1 -41 -11 -7 -234 245 -225 254 36 33 160 118 165 112 4 -4 17 -70 29
-147z m2060 149 c0 -3 -24 -36 -52 -74 -29 -38 -82 -107 -117 -154 -71 -96
-98 -124 -88 -91 4 11 16 85 27 164 12 80 23 148 26 153 6 9 204 11 204 2z
m-320 -9 c0 -3 -28 -51 -63 -107 -35 -57 -83 -135 -108 -175 -24 -40 -47 -73
-52 -73 -4 0 -6 78 -5 173 l3 172 55 6 c74 8 170 10 170 4z m620 -10 c5 -3
-50 -71 -122 -150 -72 -80 -133 -143 -135 -142 -1 2 6 28 16 58 10 30 26 81
35 114 9 33 22 77 28 99 l12 39 79 -6 c43 -4 82 -9 87 -12z m-2879 -128 c20
-50 15 -53 -28 -14 -19 17 -23 30 -22 76 l1 56 15 -35 c8 -19 24 -57 34 -83z
m1936 106 c-2 -5 -12 -26 -22 -48 -10 -22 -47 -100 -82 -174 -34 -73 -63 -137
-63 -142 0 -16 -19 -9 -24 9 -10 32 -58 323 -55 326 5 5 188 33 222 35 16 0
26 -2 24 -6z m1191 -13 c46 0 22 -37 -93 -145 -63 -59 -115 -105 -115 -101 0
5 68 162 97 225 15 31 19 33 52 27 20 -3 46 -6 59 -6z m-822 -183 c-22 -205
-15 -195 -126 -199 -51 -2 -94 0 -96 4 -2 3 49 85 113 182 65 97 119 172 121
167 2 -5 -4 -74 -12 -154z m-1632 30 c102 -133 102 -124 1 -176 l-60 -31 -11
68 c-7 37 -17 103 -24 147 -6 44 -14 88 -17 99 -11 40 24 6 111 -107z m946 96
c-16 -56 -103 -307 -115 -337 l-13 -30 -17 39 c-32 79 -97 287 -90 293 7 7
198 58 227 61 14 1 15 -4 8 -26z m378 -315 c-5 -10 -19 -20 -31 -22 -41 -9
-167 -16 -167 -10 0 7 147 296 175 344 l20 35 6 -165 c3 -91 2 -173 -3 -182z
m633 305 c-5 -10 -19 -58 -31 -108 -12 -49 -25 -106 -30 -125 -5 -19 -23 -48
-41 -64 -30 -27 -35 -28 -98 -21 -36 4 -68 8 -69 10 -2 2 43 60 101 128 57 69
117 141 132 161 28 37 53 50 36 19z m-961 -28 c0 -3 14 -73 31 -156 17 -83 28
-156 26 -163 -3 -7 -27 -16 -54 -19 -26 -4 -69 -9 -95 -13 -27 -4 -48 -3 -48
1 0 18 125 355 132 355 4 0 8 -2 8 -5z m-354 -57 c-15 -102 -59 -314 -66 -321
-9 -10 -35 37 -104 181 -27 56 -46 106 -42 109 8 8 186 71 205 72 10 1 12 -9
7 -41z m-1036 -15 c6 -27 16 -59 20 -73 5 -14 16 -52 25 -85 9 -33 21 -70 25
-82 5 -11 6 -24 3 -27 -7 -7 -213 184 -213 198 0 14 101 116 116 116 6 0 17
-21 24 -47z m2579 -70 c-23 -59 -55 -124 -71 -144 l-28 -35 -61 7 c-33 4 -63
10 -66 13 -4 3 54 67 127 141 74 74 136 133 138 131 2 -3 -15 -53 -39 -113z
m-1443 -81 c39 -114 46 -145 35 -151 -21 -14 -161 -44 -168 -37 -6 6 14 123
42 246 7 30 16 68 20 85 9 38 11 34 71 -143z m-1366 60 c0 -7 -16 -29 -35 -50
-34 -36 -36 -36 -50 -18 -10 13 -15 42 -15 83 l0 63 50 -32 c27 -18 50 -39 50
-46z m3048 -38 c-37 -69 -65 -107 -95 -130 -39 -30 -44 -31 -82 -21 -23 6 -40
14 -39 18 5 10 263 237 266 234 2 -2 -20 -48 -50 -101z m-2063 -89 c-4 -96
-10 -175 -14 -175 -8 0 -163 239 -168 260 -3 12 19 26 89 56 51 22 95 39 97
38 2 -2 0 -82 -4 -179z m-495 -12 c0 -14 -101 -83 -112 -77 -3 2 -9 19 -13 37
-4 17 -18 70 -31 117 -13 46 -24 91 -24 99 0 9 41 -25 90 -74 50 -49 90 -95
90 -102z m608 12 c34 -69 62 -131 62 -139 0 -7 -27 -22 -65 -35 -100 -32 -98
-33 -91 52 3 39 8 111 12 160 3 48 9 87 13 87 3 0 34 -56 69 -125z m-1010 -37
c28 -72 51 -133 49 -135 -8 -7 -176 133 -186 156 -10 20 -7 28 26 66 21 24 43
43 48 44 6 0 34 -58 63 -131z m656 70 c13 -64 19 -284 8 -273 -27 26 -172 211
-172 220 0 8 133 83 151 84 4 1 9 -14 13 -31z m-504 -108 l75 -70 -35 -30
c-19 -16 -40 -30 -46 -30 -7 0 -26 37 -42 83 -17 45 -33 90 -37 100 -13 31 9
18 85 -53z m633 -35 c68 -105 77 -125 55 -125 -7 0 -25 -6 -40 -14 -15 -8 -40
-17 -56 -21 -28 -6 -30 -4 -36 32 -8 53 -8 233 2 232 4 0 37 -47 75 -104z
m1332 55 c3 -5 1 -17 -4 -27 -12 -22 -39 -85 -81 -185 -24 -59 -37 -78 -51
-78 -10 0 -19 7 -19 15 0 9 -11 64 -25 123 -14 59 -28 117 -31 129 -4 20 0 22
48 26 110 7 157 7 163 -3z m175 -7 c3 -3 -11 -18 -30 -35 -19 -17 -65 -59
-101 -94 -97 -93 -100 -88 -35 51 l45 95 58 -6 c32 -4 60 -9 63 -11z m-1842
-59 c7 -32 16 -81 21 -109 5 -27 12 -57 16 -66 17 -44 -20 -19 -98 66 l-87 94
32 23 c59 43 83 56 93 54 6 -1 16 -29 23 -62z m1335 32 c-179 -238 -208 -271
-199 -223 2 12 10 56 16 97 23 140 20 134 76 141 27 3 66 7 87 7 l39 2 -19
-24z m785 7 c24 -4 32 -10 28 -20 -12 -31 -172 -252 -183 -253 -12 0 -12 3 8
184 l12 108 51 -6 c28 -4 66 -9 84 -13z m442 -13 c0 -31 -13 -37 -40 -20 -12
7 -12 12 4 29 26 29 36 26 36 -9z m-1417 -32 c-3 -24 -13 -90 -22 -147 -17
-101 -33 -133 -48 -94 -4 10 -24 46 -45 81 -21 34 -38 65 -38 68 0 3 -11 22
-25 42 -14 20 -25 42 -25 48 0 10 131 40 187 43 19 1 21 -3 16 -41z m324 -103
c18 -76 32 -144 29 -150 -2 -7 -42 -15 -98 -18 -51 -4 -126 -10 -165 -13 -41
-4 -73 -3 -73 2 0 5 57 77 125 159 69 83 125 154 125 158 0 5 5 7 12 5 6 -2
26 -67 45 -143z m-2053 44 c25 -48 46 -91 46 -98 0 -6 -22 5 -50 25 l-50 36 0
66 c0 36 2 63 4 61 2 -2 25 -43 50 -90z m2530 34 c-2 -27 -6 -88 -10 -136 -9
-126 -15 -131 -159 -123 -60 3 -125 10 -143 14 l-33 7 163 142 c90 78 168 142
174 142 7 1 10 -16 8 -46z m340 38 c15 -6 3 -18 -69 -70 -126 -90 -127 -82
-10 62 15 18 46 21 79 8z m-2151 -105 c37 -46 67 -86 67 -90 0 -11 -102 -58
-110 -49 -4 4 -12 42 -19 83 -6 41 -14 90 -17 108 -4 17 -2 32 2 32 5 0 39
-38 77 -84z m693 6 c-19 -37 -51 -102 -71 -145 -23 -48 -41 -75 -47 -69 -9 9
-27 155 -28 218 0 31 1 32 83 51 45 11 85 18 89 16 4 -2 -8 -34 -26 -71z m162
-71 c39 -67 72 -126 72 -131 0 -9 -20 -14 -120 -30 -36 -6 -93 -16 -128 -23
-35 -8 -65 -10 -68 -6 -7 12 149 319 161 315 6 -1 43 -58 83 -125z m1519 111
l50 -18 -102 -107 c-56 -59 -105 -107 -108 -107 -7 0 13 60 39 118 50 112 59
132 64 132 3 0 29 -8 57 -18z m-2936 -49 l58 -48 -26 -27 c-14 -15 -30 -25
-35 -22 -16 10 -78 144 -67 144 6 0 38 -21 70 -47z m239 25 c14 -36 60 -186
60 -198 0 -15 -25 3 -106 79 l-68 63 44 39 c25 21 48 39 53 39 4 0 12 -10 17
-22z m844 -30 c13 -80 25 -212 20 -217 -7 -7 -183 180 -184 196 0 12 101 51
137 52 17 1 23 -6 27 -31z m1686 -55 c-15 -43 -32 -91 -38 -106 -7 -16 -12
-32 -12 -37 0 -5 -16 -21 -35 -36 l-36 -27 -77 18 c-42 10 -89 20 -104 22 -16
3 -28 9 -28 13 0 4 64 49 143 100 78 51 153 101 167 111 45 32 48 22 20 -58z
m-2362 -57 c28 -30 52 -57 52 -59 0 -6 -69 -47 -79 -47 -4 0 -18 35 -31 78
-13 42 -25 83 -28 91 -9 25 30 -4 86 -63z m442 66 c0 -4 -10 -50 -21 -102 -12
-52 -24 -110 -28 -129 -3 -19 -11 -36 -17 -38 -10 -3 -84 178 -84 207 0 9 26
25 68 42 74 30 82 32 82 20z m132 -113 c51 -55 93 -106 93 -112 0 -6 -13 -14
-30 -18 -16 -4 -75 -21 -130 -38 -55 -17 -103 -27 -108 -22 -4 4 -4 19 1 32 6
13 17 60 27 104 23 108 37 155 46 155 4 0 49 -45 101 -101z m-867 16 c19 -42
38 -87 41 -101 6 -24 2 -23 -54 21 -34 27 -68 58 -76 70 -13 20 -12 25 12 54
15 17 31 31 35 31 5 0 24 -34 42 -75z m-220 13 c25 -17 45 -35 45 -38 0 -4 -9
-15 -19 -24 -18 -16 -20 -15 -50 29 -29 43 -38 65 -26 65 2 0 25 -14 50 -32z
m804 -78 c18 -49 31 -93 29 -99 -3 -9 -179 120 -182 134 -1 9 82 52 104 54 11
1 26 -27 49 -89z m-436 -4 c26 -23 47 -47 47 -52 0 -5 -14 -17 -31 -26 l-30
-18 -19 46 c-26 59 -34 94 -24 94 5 -1 30 -20 57 -44z m2737 -6 c0 -59 -23
-105 -61 -124 -43 -21 -45 -21 -119 15 l-64 31 110 58 c60 33 115 59 122 60 7
0 12 -15 12 -40z m-2981 -64 c18 -32 30 -61 27 -64 -9 -8 -100 63 -116 90 -13
24 -13 29 5 48 18 20 19 20 36 3 9 -10 31 -44 48 -77z m473 -39 c2 -59 0 -107
-4 -107 -15 0 -112 159 -102 169 18 19 90 58 96 52 4 -3 8 -54 10 -114z m1696
97 c34 -3 62 -9 62 -13 0 -8 -250 -215 -254 -209 -16 20 -34 217 -21 230 6 5
99 2 213 -8z m-367 -51 c-136 -154 -170 -188 -180 -178 -11 11 -79 176 -83
203 -4 23 35 29 190 31 l124 1 -51 -57z m-1191 -24 c52 -39 96 -74 98 -79 4
-11 -17 -24 -100 -59 -43 -19 -84 -31 -93 -28 -12 5 -15 24 -15 90 0 47 -3 99
-6 116 -10 46 8 40 116 -40z m-798 34 c17 -15 14 -43 -4 -43 -15 0 -37 32 -38
53 0 19 11 16 42 -10z m1638 16 c0 -6 -35 -67 -77 -136 l-78 -125 -26 32 c-49
58 -128 179 -120 184 4 3 36 10 72 16 35 6 98 17 139 24 41 8 78 15 83 15 4 1
7 -4 7 -10z m494 -105 c6 -84 4 -119 -4 -130 -10 -11 -40 -14 -131 -14 -66 0
-119 4 -119 9 0 11 229 251 240 251 4 0 10 -52 14 -116z m520 90 c45 -9 87
-20 95 -24 10 -5 -22 -31 -105 -85 -153 -100 -148 -98 -139 -44 9 54 32 146
40 159 8 13 14 13 109 -6z m-906 -101 c23 -60 42 -113 42 -120 0 -6 -17 -14
-37 -17 -75 -11 -223 -18 -223 -11 0 11 162 255 169 255 4 0 26 -48 49 -107z
m759 65 c-3 -13 -13 -62 -23 -111 -23 -114 -33 -120 -170 -105 -52 6 -93 14
-92 19 4 10 271 218 282 219 4 0 6 -10 3 -22z m-2182 -22 c34 -29 38 -36 26
-50 -20 -24 -27 -20 -55 28 -40 69 -33 74 29 22z m234 -37 c23 -39 41 -72 38
-75 -4 -4 -140 75 -155 91 -7 7 48 54 63 55 6 0 30 -32 54 -71z m-474 -1 c52
-82 52 -82 18 -64 -30 15 -93 80 -93 94 0 9 21 32 30 32 3 0 23 -28 45 -62z
m1185 45 c1 -20 -86 -253 -94 -253 -11 0 -187 172 -182 178 5 4 255 80 269 81
4 1 7 -2 7 -6z m1704 -43 c28 -12 45 -24 40 -29 -18 -17 -217 -121 -222 -116
-6 6 63 142 85 167 11 12 20 14 32 7 9 -5 38 -18 65 -29z m-1595 -67 c39 -53
68 -100 64 -103 -7 -7 -202 -50 -223 -50 -6 0 -10 6 -10 13 -1 19 84 237 91
237 4 0 39 -44 78 -97z m1431 53 c0 -2 -16 -38 -35 -79 -19 -41 -35 -79 -35
-83 0 -5 -19 -18 -43 -29 -40 -20 -45 -20 -105 -6 -34 8 -61 19 -59 25 3 11
255 174 270 175 4 1 7 -1 7 -3z m-2406 -78 c30 -105 21 -112 -43 -31 l-44 55
29 23 c16 13 32 20 35 17 4 -4 14 -32 23 -64z m-154 17 c10 -12 10 -19 2 -27
-8 -8 -16 -5 -31 13 -26 31 -28 53 -3 40 10 -5 25 -17 32 -26z m-236 -20 c20
-25 36 -51 34 -57 -6 -17 -88 61 -88 83 0 29 12 23 54 -26z m527 -3 c45 -26
84 -52 85 -57 4 -11 -124 -91 -132 -82 -13 13 -51 187 -41 187 3 0 42 -21 88
-48z m391 -41 c-7 -38 -12 -86 -12 -105 0 -19 -4 -37 -8 -40 -9 -6 -192 121
-192 134 0 4 35 22 78 41 42 18 88 39 102 46 38 19 45 3 32 -76z m124 -13 c41
-40 74 -77 74 -82 0 -13 -182 -68 -191 -58 -6 7 6 145 16 190 3 12 10 22 17
22 6 0 44 -32 84 -72z m2099 56 c31 -31 15 -57 -62 -97 -39 -20 -74 -34 -76
-29 -6 9 100 142 113 142 5 0 16 -7 25 -16z m-2787 -104 c-4 -10 -110 42 -115
57 -2 6 4 18 13 28 16 16 20 14 61 -30 24 -25 43 -50 41 -55z m2650 63 c-1 -5
-23 -36 -48 -70 -67 -91 -130 -113 -189 -66 -22 18 -21 19 96 79 112 59 149
73 141 57z m-2841 -28 c9 -25 -2 -27 -22 -5 -17 18 -17 20 -1 20 9 0 19 -7 23
-15z m1887 -13 c3 -5 -37 -51 -89 -102 -82 -82 -95 -91 -102 -74 -6 16 -9 13
-13 -16 l-5 -35 -102 -3 c-57 -1 -103 1 -103 5 0 5 27 42 61 83 88 109 98 120
108 120 5 0 12 -10 14 -22 2 -13 3 -9 1 9 -1 17 0 34 3 37 10 9 221 7 227 -2z
m-1390 -59 c4 -32 9 -75 12 -95 5 -27 3 -38 -7 -38 -18 0 -169 90 -169 101 0
5 25 23 55 40 30 17 58 35 61 40 3 5 13 9 23 9 15 0 20 -11 25 -57z m1086 52
c0 -2 -33 -50 -72 -106 l-73 -100 -18 23 c-32 38 -89 160 -80 169 12 12 243
26 243 14z m594 -15 c5 -6 8 -11 5 -13 -2 -2 -41 -31 -86 -65 -45 -34 -85 -67
-88 -72 -3 -6 -15 -10 -25 -10 -10 0 -21 -8 -24 -18 -10 -32 -38 -39 -123 -34
-82 5 -90 7 -75 27 20 27 194 177 199 171 4 -3 6 -34 4 -69 -1 -45 1 -58 9
-47 5 8 10 42 10 76 0 33 3 64 8 68 9 11 174 -3 186 -14z m-2364 -22 c0 -6 -7
-5 -15 2 -8 7 -15 17 -15 22 0 6 7 5 15 -2 8 -7 15 -17 15 -22z m245 -28 c25
-54 13 -61 -30 -16 -29 31 -33 41 -24 57 13 26 29 14 54 -41z m537 7 c24 -18
56 -40 71 -50 16 -10 27 -23 25 -29 -4 -10 -112 -58 -133 -58 -8 0 -14 24 -18
63 -3 34 -9 72 -13 85 -9 32 16 29 68 -11z m678 23 c0 -18 -89 -200 -98 -200
-12 0 -132 145 -132 158 0 13 17 18 99 31 35 6 66 13 69 16 10 9 62 5 62 -5z
m1151 -35 c0 -12 -181 -129 -188 -121 -3 3 2 21 11 40 9 19 16 40 16 48 0 7 9
27 19 44 l19 32 62 -17 c34 -9 61 -20 61 -26z m-2236 4 c36 -17 65 -34 65 -37
0 -9 -63 -72 -72 -72 -4 0 -18 21 -32 48 -26 52 -40 92 -32 92 3 0 35 -14 71
-31z m1178 -66 c26 -48 44 -90 40 -94 -11 -10 -186 -28 -196 -19 -10 8 84 199
98 200 6 0 31 -39 58 -87z m861 -16 c-33 -99 -59 -117 -151 -103 -35 5 -63 12
-63 17 0 13 229 173 237 165 2 -1 -9 -37 -23 -79z m701 23 c-27 -27 -69 -57
-93 -67 -42 -16 -44 -16 -64 5 l-21 21 79 35 c43 20 86 40 94 45 8 6 24 10 35
10 15 1 8 -10 -30 -49z m-2923 13 c32 -30 36 -45 11 -36 -22 7 -63 43 -63 55
0 16 25 7 52 -19z m981 -5 c-3 -18 -10 -41 -14 -50 -5 -9 -9 -29 -9 -45 0 -45
18 -7 26 54 4 32 11 53 19 53 6 0 34 -26 61 -57 70 -82 78 -93 71 -99 -6 -7
-135 -34 -159 -34 -13 0 -18 8 -19 28 0 27 -1 27 -11 5 -6 -13 -14 -23 -17
-23 -3 0 -35 27 -71 60 -36 33 -68 60 -72 60 -5 0 -8 6 -8 14 0 9 26 22 68 34
137 41 143 41 135 0z m1609 1 c37 -19 39 -22 22 -33 -39 -27 -153 -84 -157
-80 -7 7 79 134 90 134 2 0 22 -9 45 -21z m-2285 -83 c13 -38 21 -71 18 -74
-7 -8 -134 51 -140 65 -2 8 7 24 22 36 14 12 31 28 37 34 22 25 40 7 63 -61z
m2153 46 c0 -4 -16 -33 -35 -64 -44 -71 -87 -94 -144 -78 -22 6 -42 14 -45 18
-5 8 200 132 217 132 4 0 7 -4 7 -8z m-2041 -35 c30 -18 56 -37 58 -43 3 -10
-65 -54 -85 -54 -8 0 -42 100 -42 123 0 13 14 7 69 -26z m-479 -7 c14 -19 17
-30 9 -30 -17 0 -49 30 -49 47 0 22 17 15 40 -17z m790 -53 c0 -46 -3 -86 -6
-90 -7 -7 -153 95 -153 108 -1 11 115 64 142 65 15 0 17 -10 17 -83z m104 4
c36 -30 66 -58 66 -62 0 -11 -130 -50 -141 -43 -12 7 -12 167 0 162 6 -1 39
-27 75 -57z m1914 47 c16 -16 15 -38 0 -38 -7 0 -34 -11 -60 -24 -26 -13 -50
-21 -53 -18 -7 7 76 92 90 92 6 0 16 -5 23 -12z m-2668 -14 c45 -18 46 -21 24
-52 -21 -30 -29 -28 -59 15 -39 58 -33 64 35 37z m2910 -12 c0 -26 -97 -76
-125 -66 -26 11 -11 27 46 51 58 24 79 28 79 15z m-407 -58 c-50 -59 -111 -89
-147 -73 -15 7 -25 17 -23 22 4 12 189 104 200 99 4 -2 -10 -23 -30 -48z
m-2647 9 c-7 -7 -26 7 -26 19 0 6 6 6 15 -2 9 -7 13 -15 11 -17z m233 -28 c17
-30 31 -59 31 -64 0 -16 -91 22 -101 42 -7 12 -5 26 8 47 9 17 20 30 24 30 4
0 21 -25 38 -55z m1474 49 c3 -3 -22 -40 -56 -82 -78 -96 -91 -107 -100 -79
-2 6 -2 0 0 -15 4 -26 3 -26 -72 -33 -91 -9 -107 0 -77 42 11 15 29 46 40 67
12 22 34 54 49 73 28 33 28 33 119 33 50 0 93 -3 97 -6z m234 -8 c7 -7 -11
-26 -145 -148 -51 -48 -52 -48 -122 -48 -38 0 -70 4 -70 8 0 12 137 173 147
173 4 -1 11 -29 14 -63 l6 -63 1 79 2 79 80 -5 c44 -3 83 -8 87 -12z m-1343
-67 c9 -39 15 -74 12 -76 -3 -3 -18 3 -33 13 -15 10 -44 27 -63 37 -45 24 -51
30 -42 42 9 13 84 54 98 55 6 0 18 -32 28 -71z m861 61 c3 -5 -9 -33 -27 -62
-19 -29 -39 -65 -46 -80 -6 -16 -18 -28 -25 -28 -19 0 -110 150 -94 156 10 3
74 12 174 23 6 0 15 -3 18 -9z m653 -6 c28 -4 52 -10 52 -14 0 -7 -155 -130
-164 -130 -4 0 -6 8 -7 18 0 9 -6 2 -12 -16 -7 -18 -19 -37 -27 -42 -19 -12
-127 -13 -134 -1 -8 12 165 161 186 161 10 0 18 7 18 15 0 17 11 18 88 9z
m-1718 -63 c0 -8 -44 -41 -54 -41 -7 0 -46 76 -46 90 0 6 23 -1 50 -15 28 -14
50 -29 50 -34z m2509 45 c10 -12 6 -18 -24 -32 -46 -22 -58 -10 -20 21 17 13
31 24 31 25 1 0 7 -6 13 -14z m-2198 -36 c32 -23 59 -44 59 -48 0 -8 -100 -46
-104 -40 -18 21 -34 128 -20 128 3 0 32 -18 65 -40z m504 -13 c-8 -20 -15 -44
-14 -54 0 -14 2 -14 6 -3 2 8 8 24 13 35 4 11 11 28 14 38 3 9 9 17 14 17 12
0 96 -149 88 -157 -3 -4 -36 -10 -72 -15 -82 -9 -101 0 -172 80 -55 64 -63 82
-34 83 9 0 49 6 87 13 39 7 73 10 78 6 4 -3 1 -23 -8 -43z m1096 31 c22 -6 39
-16 39 -22 0 -13 -139 -101 -146 -93 -6 6 54 127 62 127 4 0 24 -5 45 -12z
m-2356 -18 c3 -5 1 -10 -4 -10 -6 0 -11 5 -11 10 0 6 2 10 4 10 3 0 8 -4 11
-10z m165 -42 c27 -23 72 -89 66 -96 -12 -11 -61 25 -78 59 -10 19 -18 30 -18
25 0 -5 -9 -1 -20 9 -11 10 -20 24 -20 32 0 11 5 11 28 -2 15 -8 34 -20 42
-27z m2650 34 c0 -12 -51 -56 -80 -69 -42 -20 -64 -23 -80 -13 -18 12 -6 21
85 62 66 29 75 32 75 20z m283 -17 c-3 -8 -9 -15 -13 -15 -4 0 -22 -3 -40 -7
-42 -8 -33 11 13 31 36 15 49 12 40 -9z m-2056 -62 c-5 -52 -4 -73 3 -63 5 8
10 39 10 68 0 28 4 52 9 52 6 0 35 -30 67 -67 l57 -67 -62 -14 c-54 -12 -66
-12 -94 2 -39 18 -142 105 -142 119 0 10 103 45 139 46 18 1 18 -5 13 -76z
m1188 5 c-32 -67 -68 -91 -124 -82 -23 4 -41 10 -41 15 0 13 184 141 188 131
1 -5 -9 -34 -23 -64z m-1732 5 c15 -31 24 -59 22 -61 -8 -8 -99 36 -110 52 -7
11 -3 22 15 41 13 14 29 25 35 25 6 0 23 -26 38 -57z m2046 31 c7 -7 -10 -20
-61 -48 -70 -39 -76 -33 -27 27 27 32 36 37 58 32 14 -4 28 -9 30 -11z m-1910
-54 l25 -13 -23 -18 c-33 -27 -60 -24 -71 9 -6 15 -14 34 -19 43 -15 26 -2 29
32 10 18 -10 43 -24 56 -31z m2361 40 c0 -5 -5 -10 -11 -10 -5 0 -7 5 -4 10 3
6 8 10 11 10 2 0 4 -4 4 -10z m-2690 -20 c47 -25 120 -113 106 -128 -4 -3 -24
2 -44 13 -29 16 -37 26 -37 47 1 19 -3 24 -11 17 -11 -9 -19 -1 -48 49 -9 15
8 16 34 2z m544 -6 c9 -23 7 -124 -2 -124 -14 0 -117 82 -117 93 0 10 74 43
101 46 7 1 15 -6 18 -15z m1566 7 c0 -16 -61 -85 -92 -103 -31 -20 -79 -21
-84 -3 -3 9 151 114 169 115 4 0 7 -4 7 -9z m228 -29 c2 -6 -15 -20 -37 -32
-47 -24 -53 -12 -14 25 28 25 44 28 51 7z m208 -1 c-23 -26 -105 -56 -118 -43
-6 6 6 16 34 28 88 38 108 41 84 15z m-1906 -37 c28 -26 50 -50 50 -55 0 -10
-93 -30 -102 -21 -3 4 -9 33 -13 65 -9 71 -1 72 65 11z m2137 30 c-3 -3 -12
-4 -19 -1 -8 3 -5 6 6 6 11 1 17 -2 13 -5z m-2381 -80 c9 -30 14 -57 12 -59
-6 -6 -111 60 -115 72 -5 13 43 42 69 43 13 0 22 -16 34 -56z m1824 48 c0 -25
-106 -92 -145 -92 -19 0 -16 20 6 31 8 5 37 22 64 38 50 31 75 38 75 23z
m-2030 -17 c17 -9 30 -20 30 -25 0 -6 6 -10 13 -10 15 0 64 -86 55 -96 -4 -3
-24 4 -47 16 -41 20 -55 52 -28 64 6 3 2 3 -10 1 -22 -6 -53 25 -53 52 0 17 5
16 40 -2z m1083 8 c7 -11 -65 -131 -82 -138 -8 -3 -18 -1 -21 5 -5 8 -9 6 -14
-5 -5 -13 -17 -16 -59 -14 -29 1 -58 0 -63 -4 -6 -3 -14 -3 -20 1 -16 11 -84
109 -84 120 0 6 15 13 33 16 75 12 117 14 122 6 3 -5 -4 -29 -15 -54 -10 -25
-15 -46 -10 -46 4 0 11 12 15 28 9 42 48 80 86 85 62 7 108 7 112 0z m191 -1
c7 -12 -101 -136 -126 -143 -34 -10 -106 -10 -112 -1 -5 9 38 79 76 124 21 24
30 27 90 27 37 1 69 -2 72 -7z m142 -2 c46 0 44 -21 -6 -61 -22 -18 -40 -40
-40 -49 0 -29 -23 -40 -85 -40 -34 0 -65 3 -68 6 -8 8 82 114 97 114 6 0 17 9
24 21 8 12 19 18 28 15 9 -3 31 -6 50 -6z m-1745 -32 c13 -17 17 -28 8 -23
-24 14 -49 38 -49 47 0 18 20 7 41 -24z m2539 17 c-7 -8 -17 -15 -22 -15 -6 0
-5 7 2 15 7 8 17 15 22 15 6 0 5 -7 -2 -15z m-1915 -27 c25 -17 45 -36 45 -40
0 -9 -43 -28 -64 -28 -12 0 -36 60 -36 89 0 16 5 14 55 -21z m1318 15 c13 -8
7 -21 -11 -27 -10 -4 -37 -25 -61 -47 -23 -23 -45 -39 -48 -36 -7 7 15 75 34
105 12 19 20 22 46 16 18 -3 35 -8 40 -11z m757 8 c0 -5 -13 -14 -30 -20 -18
-6 -30 -6 -30 0 0 5 9 9 19 9 11 0 23 5 26 10 8 12 15 13 15 1z m-2574 -32
c15 0 55 -57 45 -63 -5 -3 -20 6 -32 20 -13 14 -32 33 -41 42 -10 9 -18 21
-18 26 0 5 8 2 18 -7 10 -10 23 -17 28 -18z m956 -34 c21 -27 38 -55 38 -62 0
-7 -24 -13 -62 -15 -63 -4 -63 -4 -110 41 -27 25 -48 51 -48 58 0 14 71 32
115 30 23 -2 38 -13 67 -52z m982 39 c9 -3 16 -11 16 -18 0 -13 -88 -71 -97
-63 -7 8 34 74 50 81 7 2 13 5 14 5 1 1 8 -2 17 -5z m356 -19 c-15 -18 -121
-67 -129 -60 -6 7 3 14 78 56 46 27 71 29 51 4z m-590 3 c-1 -7 -11 -33 -23
-58 -20 -41 -25 -45 -55 -43 -18 0 -36 4 -40 8 -6 6 96 104 111 105 4 0 7 -6
7 -12z m-970 -63 c0 -36 -4 -65 -9 -65 -14 0 -106 81 -106 94 0 5 15 13 33 17
18 4 36 9 39 13 4 3 15 6 25 6 16 0 18 -9 18 -65z m-579 22 c32 -27 64 -75 56
-84 -9 -8 -57 25 -64 45 -4 9 -15 23 -25 30 -10 7 -18 17 -18 23 0 16 24 9 51
-14z m256 -30 c-7 -22 -44 -19 -61 5 -29 41 -20 50 25 28 22 -12 39 -26 36
-33z m1653 33 c0 -11 -60 -44 -67 -36 -9 8 46 58 57 51 6 -3 10 -10 10 -15z
m-1230 -72 c0 -4 -18 -8 -40 -8 l-40 0 0 47 0 47 40 -39 c22 -21 40 -43 40
-47z m1010 72 c0 -6 -11 -29 -26 -51 -20 -33 -30 -40 -51 -37 -40 5 -36 19 15
61 49 38 62 44 62 27z m-1267 -17 c3 -5 8 -30 12 -57 l8 -49 -57 39 c-30 21
-56 42 -56 45 0 18 84 38 93 22z m1350 -68 c-18 -22 -35 -35 -47 -33 -34 5
-27 22 22 56 54 38 66 28 25 -23z m217 45 c0 -5 -4 -10 -10 -10 -5 0 -10 5
-10 10 0 6 5 10 10 10 6 0 10 -4 10 -10z m-1493 -22 c32 -30 29 -48 -7 -48
-28 0 -30 3 -30 35 0 41 5 43 37 13z m-190 -32 c7 -22 11 -41 9 -43 -8 -8 -86
42 -86 54 0 15 30 33 49 30 8 -1 20 -20 28 -41z m-157 19 c7 -9 10 -19 6 -22
-8 -9 -38 9 -44 25 -5 17 23 15 38 -3z m-160 -48 c0 -6 -9 -2 -20 8 -11 10
-20 23 -20 28 0 6 9 2 20 -8 11 -10 20 -23 20 -28z m1865 3 c-27 -29 -65 -41
-65 -21 0 12 82 62 89 55 2 -2 -8 -18 -24 -34z m-1465 -5 c0 -8 -7 -15 -15
-15 -16 0 -38 34 -28 43 9 10 43 -12 43 -28z m774 27 c9 -15 -131 -145 -148
-139 -15 6 -106 116 -106 129 0 14 245 23 254 10z m175 -8 c6 -6 -49 -106 -72
-131 -18 -21 -30 -23 -114 -23 -58 0 -93 4 -93 11 0 14 132 139 141 134 4 -3
9 1 12 8 4 10 21 13 64 9 32 -2 60 -6 62 -8z m-1136 -25 c21 -38 18 -44 -16
-28 -27 12 -41 34 -31 50 10 17 29 9 47 -22z m671 18 c24 -13 116 -122 116
-138 0 -4 -37 -9 -82 -11 -85 -4 -138 10 -138 35 0 8 -3 8 -9 -2 -7 -11 -22
-4 -70 34 -60 47 -73 65 -48 65 6 0 29 3 50 6 30 5 37 4 37 -10 0 -9 4 -16 9
-16 5 0 8 8 7 18 -1 13 10 18 49 23 28 3 51 7 51 7 1 1 13 -4 28 -11z m575 -3
c8 -3 -19 -27 -65 -59 -43 -31 -81 -50 -82 -45 -2 6 12 36 32 65 37 57 47 60
115 39z m150 -20 c5 -4 -100 -114 -110 -114 -4 0 -10 8 -12 18 -3 10 -5 6 -6
-11 0 -15 -8 -30 -16 -33 -22 -9 -145 6 -145 17 0 12 162 119 172 113 4 -3 5
-17 2 -31 -5 -18 -3 -24 5 -19 6 4 11 20 11 36 0 15 6 30 13 33 11 4 78 -3 86
-9z m-1311 -22 c2 -7 -3 -12 -12 -12 -9 0 -16 7 -16 16 0 17 22 14 28 -4z
m292 -4 c1 -21 2 -21 11 -5 9 15 17 11 80 -39 38 -31 69 -60 69 -65 0 -5 -19
-9 -43 -9 -23 0 -57 -4 -75 -9 -26 -8 -34 -6 -44 8 -7 10 -16 18 -20 17 -10
-2 -68 82 -68 98 0 13 20 20 73 25 11 1 17 -6 17 -21z m1335 12 c7 -12 -42
-37 -52 -27 -4 4 2 14 13 22 23 17 31 18 39 5z m-1790 -20 c10 -11 15 -23 12
-27 -8 -7 -47 25 -47 39 0 14 16 9 35 -12z m1555 10 c0 -11 -119 -74 -127 -67
-2 3 13 21 34 41 36 34 93 50 93 26z m-1196 -44 c40 -53 32 -59 -31 -24 -73
40 -70 37 -53 48 29 19 57 10 84 -24z m1286 15 c0 -6 -52 -49 -77 -65 -24 -14
-13 19 16 52 19 20 35 30 45 26 9 -3 16 -9 16 -13z m-1576 3 c16 -6 23 -34 8
-34 -10 0 -32 22 -32 32 0 10 3 10 24 2z m164 -58 c7 -21 10 -41 7 -44 -3 -4
-22 11 -43 31 -31 31 -34 39 -22 47 26 17 45 6 58 -34z m1322 39 c0 -11 -66
-105 -76 -109 -15 -6 -94 14 -94 23 0 8 149 90 163 91 4 0 7 -2 7 -5z m140
-13 c0 -7 -48 -32 -62 -32 -17 0 -7 16 19 32 26 15 43 15 43 0z m-1310 -71
l25 -15 -40 -12 c-22 -7 -52 -13 -67 -13 -24 -1 -29 4 -38 42 -6 23 -13 47
-15 54 -10 30 14 20 135 -56z m-360 49 c0 -5 -4 -10 -10 -10 -5 0 -10 5 -10
10 0 6 5 10 10 10 6 0 10 -4 10 -10z m140 -15 c20 -21 21 -25 6 -25 -20 0 -66
29 -66 41 0 18 37 8 60 -16z m1575 5 c-7 -11 -45 -33 -45 -26 0 2 7 12 16 20
17 18 39 22 29 6z m-1655 -39 c15 -28 13 -33 -10 -21 -11 6 -20 17 -20 25 0
21 17 18 30 -4z m820 7 c12 7 49 9 110 5 l91 -6 -57 -58 c-69 -70 -103 -83
-197 -76 -70 5 -70 5 -118 58 -26 30 -48 59 -49 66 0 15 168 23 188 9 9 -6 20
-6 32 2z m715 -28 c-23 -24 -48 -40 -62 -40 -13 0 -23 -6 -23 -14 0 -15 -95
-69 -111 -64 -15 5 42 68 74 84 18 8 55 28 82 44 70 42 86 38 40 -10z m-331 9
c5 -5 8 -10 5 -12 -10 -9 -122 -83 -132 -88 -7 -3 -22 -11 -34 -17 -28 -15
-120 -16 -128 -2 -7 11 101 115 119 115 6 0 15 6 19 13 7 10 25 12 75 7 37 -4
71 -11 76 -16z m-1106 -14 c54 -26 63 -39 36 -49 -9 -4 -14 -9 -11 -13 4 -3
13 0 22 7 8 7 20 10 27 7 16 -6 53 -75 45 -83 -7 -7 -107 48 -107 59 0 4 -6 7
-14 7 -8 0 -17 8 -21 19 -3 10 -14 26 -25 36 -21 19 -26 35 -12 35 5 0 32 -11
60 -25z m521 -32 c28 -31 51 -63 51 -70 0 -9 -19 -13 -68 -13 -67 0 -70 1
-135 51 -37 29 -67 56 -67 60 0 4 17 11 38 14 20 4 44 8 52 10 61 12 78 5 129
-52z m733 21 c12 -7 10 -24 -3 -24 -6 0 -38 -16 -70 -35 -33 -19 -63 -35 -66
-35 -10 0 8 54 29 83 19 26 25 28 61 23 22 -4 44 -9 49 -12z m-995 -46 c6 -29
9 -55 7 -57 -6 -6 -112 50 -126 67 -14 17 -6 24 39 32 68 14 68 14 80 -42z
m69 1 c22 -17 51 -43 65 -57 15 -15 45 -42 68 -60 22 -18 41 -39 41 -45 0 -10
-43 -15 -67 -7 -5 1 -16 2 -25 1 -18 -2 -98 56 -98 70 0 4 15 10 33 12 28 3
26 4 -11 5 -36 2 -44 6 -52 28 -12 31 -13 84 -1 84 4 0 26 -14 47 -31z m784 9
c-6 -13 -15 -35 -21 -51 -6 -15 -21 -30 -35 -33 -13 -3 -24 -12 -24 -19 0 -20
-102 -82 -138 -83 -17 0 -42 -4 -53 -7 -12 -4 -19 -3 -16 2 4 6 -26 9 -72 9
-53 -1 -83 4 -95 13 -15 12 -17 12 -14 0 5 -21 -48 -23 -96 -4 -43 17 -92 68
-81 85 8 13 118 13 131 0 8 -8 15 -6 24 5 19 23 125 21 140 -2 8 -13 13 -14
16 -5 6 13 115 18 128 5 3 -4 -11 -25 -31 -47 l-38 -40 37 27 c20 15 41 27 46
27 6 0 12 7 16 15 3 10 20 15 48 16 28 0 37 3 25 8 -29 11 -23 22 34 62 64 44
83 49 69 17z m360 8 c0 -3 -13 -14 -30 -26 -22 -16 -30 -18 -30 -7 0 8 10 19
23 25 24 12 37 14 37 8z m-1506 -48 c36 -24 63 -58 46 -58 -5 0 -19 9 -30 20
-11 11 -24 20 -28 20 -5 0 -17 9 -27 20 -24 27 -3 26 39 -2z m257 -39 c28 -20
25 -24 -18 -32 -27 -5 -35 -2 -51 21 -11 15 -23 38 -27 51 l-7 23 39 -23 c22
-13 51 -31 64 -40z m983 16 c-15 -19 -37 -38 -50 -41 -13 -3 -24 -11 -24 -18
0 -13 -99 -70 -107 -62 -13 13 33 59 103 106 92 60 116 65 78 15z m191 25 c7
-12 -42 -37 -52 -27 -4 4 2 14 13 22 23 17 31 18 39 5z m-127 -51 c-5 -16 -56
-44 -65 -35 -9 9 35 45 55 46 8 0 12 -5 10 -11z m-1167 -16 c35 -21 37 -33 5
-33 -14 0 -30 10 -40 25 -19 30 -7 32 35 8z m188 -46 c7 -21 11 -40 8 -43 -8
-8 -99 48 -104 63 -4 11 34 22 67 19 8 -1 21 -18 29 -39z m-1109 24 c0 -5 6
-11 13 -14 6 -2 -1 -2 -18 1 -29 4 -29 3 -10 -12 11 -8 35 -16 54 -16 24 0 32
-4 28 -14 -3 -7 6 -32 19 -56 13 -23 24 -48 24 -56 0 -20 13 -17 33 6 9 11 24
20 32 20 8 0 15 5 15 10 0 6 -6 10 -14 10 -8 0 -18 -4 -21 -10 -9 -15 -35 -12
-35 4 0 8 -6 17 -12 20 -9 3 -8 8 5 16 9 6 17 19 17 28 0 15 -2 15 -10 2 -8
-13 -11 -12 -24 5 -18 25 -10 38 19 31 14 -4 26 -1 29 7 3 6 2 -1 -1 -17 -6
-31 -10 -31 57 -10 12 4 20 2 20 -5 0 -6 -5 -11 -11 -11 -7 0 -8 -5 -3 -12 5
-7 9 -24 8 -38 -1 -14 -2 -41 -3 -61 -1 -24 -7 -39 -18 -43 -23 -9 -43 12 -23
24 13 8 12 10 -2 10 -22 0 -39 -31 -28 -50 5 -9 4 -20 -2 -28 -9 -11 -16 -8
-35 14 -24 28 -30 54 -13 54 6 0 10 5 10 10 0 14 -77 -38 -84 -56 -3 -9 -10
-13 -15 -10 -5 4 -17 -1 -25 -10 -15 -14 -16 -11 -16 36 0 45 3 52 25 60 14 5
25 14 25 20 0 7 -6 8 -19 0 -29 -15 -31 -13 -31 29 0 30 4 40 20 44 11 3 20
11 20 17 0 7 -8 10 -20 7 -16 -4 -20 0 -20 18 0 21 10 32 33 34 4 1 7 -3 7 -8z
m2014 -10 c7 -11 -62 -56 -71 -47 -8 8 37 56 53 56 7 0 15 -4 18 -9z m-1024
-26 c15 -16 20 -29 14 -34 -12 -12 -69 33 -60 48 11 17 20 14 46 -14z m169 6
c24 -18 22 -41 -4 -41 -14 0 -35 29 -35 49 0 16 12 13 39 -8z m-874 -1 c3 -5
-1 -10 -10 -10 -9 0 -13 5 -10 10 3 6 8 10 10 10 2 0 7 -4 10 -10z m1539 -15
c-7 -18 -43 -39 -51 -31 -9 8 27 46 43 46 8 0 11 -6 8 -15z m1268 4 c21 -11
20 -12 -8 -24 -16 -6 -41 -15 -55 -18 -24 -6 -27 -4 -25 17 0 13 5 21 11 18
16 -10 39 -12 55 -5 10 4 6 8 -15 13 -25 6 -26 8 -7 9 13 0 33 -4 44 -10z
m-2692 -9 c0 -5 -4 -10 -10 -10 -5 0 -10 5 -10 10 0 6 5 10 10 10 6 0 10 -4
10 -10z m663 -18 c10 -10 14 -22 10 -25 -7 -8 -43 21 -43 35 0 14 16 9 33 -10z
m1733 5 c9 -9 -22 -37 -40 -37 -11 0 -15 8 -14 24 2 19 7 24 25 22 13 -2 26
-5 29 -9z m-2436 -7 c0 -5 -10 -10 -22 -10 -14 0 -18 -3 -11 -8 8 -5 8 -11 -1
-24 -12 -17 -14 -17 -32 3 -18 20 -18 21 1 35 22 16 65 19 65 4z m160 1 c0 -5
-9 -7 -20 -4 -24 6 -26 -3 -4 -24 13 -13 20 -14 35 -5 27 17 109 28 109 14 0
-5 -9 -8 -20 -5 -12 3 -20 0 -20 -7 0 -8 -10 -11 -29 -8 -31 5 -57 -22 -53
-54 2 -9 -6 -21 -16 -27 -15 -8 -23 -6 -36 8 -20 22 -21 41 -1 41 8 0 15 5 15
10 0 16 -28 11 -42 -7 -16 -22 -58 -46 -65 -39 -7 7 23 70 39 83 31 24 108 41
108 24z m1360 -6 c-7 -8 -20 -15 -29 -15 -13 1 -13 3 3 15 26 19 42 19 26 0z
m976 -1 c-19 -19 -20 -36 -4 -52 19 -19 -12 -15 -34 5 -24 22 -23 42 5 53 37
15 51 12 33 -6z m-2471 -15 c-4 -5 -13 -9 -22 -9 -13 0 -13 3 -3 15 13 15 35
11 25 -6z m1970 -11 c24 -11 25 -13 9 -18 -17 -6 -44 9 -44 24 0 9 6 7 35 -6z
m-1595 -9 c0 -6 -9 -9 -19 -6 -14 3 -18 1 -14 -10 5 -12 0 -14 -28 -9 -24 5
-30 4 -19 -3 12 -8 10 -15 -15 -40 -17 -17 -40 -31 -52 -31 -27 0 -31 17 -5
23 13 4 12 5 -5 6 -29 1 -38 17 -16 30 16 9 14 10 -10 11 -16 0 -26 4 -23 9 8
12 55 20 61 11 3 -4 22 -2 42 6 47 16 103 18 103 3z m84 -24 c19 -20 27 -19
19 2 -7 18 7 13 40 -15 11 -10 17 -11 17 -4 0 7 -5 12 -12 12 -9 0 -9 3 0 12
16 16 46 -12 59 -57 10 -32 9 -36 -15 -54 -26 -18 -27 -18 -47 1 -17 16 -18
20 -5 29 12 9 11 9 -5 4 -11 -4 -26 -10 -34 -13 -9 -3 -12 -1 -7 6 9 15 -13
16 -49 2 -20 -8 -25 -15 -20 -30 5 -14 2 -20 -10 -20 -12 0 -15 5 -9 23 15 46
12 77 -8 77 -30 0 -21 19 15 29 46 13 54 13 71 -4z m1946 6 c0 -5 -7 -12 -16
-15 -24 -9 -28 -7 -14 9 14 17 30 20 30 6z m-1766 -63 c-3 -5 -12 -1 -20 9
-20 27 -17 39 6 18 11 -10 17 -22 14 -27z m-594 3 c0 -24 -18 -37 -31 -24 -13
13 -1 43 17 43 8 0 14 -9 14 -19z m2430 -1 c0 -5 -2 -10 -4 -10 -3 0 -8 5 -11
10 -3 6 -1 10 4 10 6 0 11 -4 11 -10z m255 0 c-3 -5 -12 -7 -20 -3 -21 7 -19
13 6 13 11 0 18 -4 14 -10z m-2425 -10 c0 -6 -7 -13 -15 -16 -8 -4 -15 -12
-15 -20 0 -8 -7 -14 -15 -14 -19 0 -19 5 1 35 16 25 44 34 44 15z m-488 -69
c-7 -20 -9 -21 -21 -7 -11 13 -11 19 -1 31 18 21 33 4 22 -24z m788 -6 c0 -8
-4 -15 -10 -15 -5 0 -10 7 -10 15 0 8 5 15 10 15 6 0 10 -7 10 -15z m1118 -22
c-5 -25 -28 -28 -28 -4 0 12 6 21 16 21 9 0 14 -7 12 -17z m472 -3 c0 -5 -4
-10 -10 -10 -5 0 -10 5 -10 10 0 6 5 10 10 10 6 0 10 -4 10 -10z m-2415 -10
c3 -5 -1 -10 -9 -10 -9 0 -16 5 -16 10 0 6 4 10 9 10 6 0 13 -4 16 -10z m629
-38 c7 -11 -34 -46 -42 -36 -4 4 -1 9 6 11 6 3 12 11 12 19 0 15 16 19 24 6z
m246 -32 c0 -5 -5 -10 -11 -10 -5 0 -7 5 -4 10 3 6 8 10 11 10 2 0 4 -4 4 -10z
m-227 -151 c7 -26 -25 -59 -56 -59 -13 0 -28 -5 -35 -12 -6 -6 -25 -13 -41
-14 -26 -3 -31 0 -36 24 -4 15 -10 34 -15 43 -15 29 10 39 96 39 74 0 82 -2
87 -21z m172 9 c17 -51 14 -53 -65 -53 -64 0 -75 3 -78 18 -8 39 5 47 73 47
44 0 67 -4 70 -12z m1380 -58 c3 -5 1 -10 -4 -10 -6 0 -11 5 -11 10 0 6 2 10
4 10 3 0 8 -4 11 -10z m-505 -196 c0 -19 -5 -24 -25 -24 -20 0 -25 5 -25 25 0
14 5 25 11 25 5 0 7 -4 4 -10 -3 -5 -1 -10 4 -10 6 0 11 7 11 16 0 8 5 12 10
9 6 -3 10 -17 10 -31z m-1144 9 c13 -13 19 -14 22 -5 2 6 11 12 19 12 9 0 13
-6 9 -15 -3 -8 -1 -15 4 -15 6 0 10 5 10 10 0 6 7 10 15 10 16 0 20 -18 7 -36
-8 -13 -42 -14 -42 -2 0 5 -9 7 -19 3 -11 -3 -25 1 -34 10 -9 8 -20 15 -26 15
-6 0 -11 7 -11 15 0 20 25 19 46 -2z m192 5 c13 -13 16 -28 5 -28 -5 0 -19 9
-33 20 -23 18 -24 20 -4 20 11 0 25 -5 32 -12z m82 -2 c0 -18 -42 -29 -52 -13
-13 21 -9 27 22 27 19 0 30 -5 30 -14z m-130 -26 c0 -5 -4 -10 -10 -10 -5 0
-10 5 -10 10 0 6 5 10 10 10 6 0 10 -4 10 -10z m1848 -112 c32 -32 -9 -39 -48
-8 l-25 20 31 0 c16 0 35 -5 42 -12z m-283 -29 c22 -41 14 -45 -24 -14 -36 31
-39 45 -11 45 12 0 26 -12 35 -31z m-170 11 c3 -5 -3 -10 -14 -10 -12 0 -21 5
-21 10 0 6 6 10 14 10 8 0 18 -4 21 -10z m714 -12 c65 -15 68 -33 4 -24 -27 4
-69 9 -95 13 -27 3 -48 9 -48 14 0 13 80 11 139 -3z m-315 -16 c11 -9 27 -12
216 -37 52 -7 88 -13 80 -14 -12 -1 -12 -4 3 -12 9 -5 17 -17 17 -25 0 -17
-23 -13 -72 12 -14 7 -104 29 -198 49 -95 19 -176 37 -179 41 -9 10 120 -4
133 -14z m-403 -7 c-1 -15 -24 -12 -29 3 -3 9 2 13 12 10 10 -1 17 -7 17 -13z
m-1251 -31 c11 -13 10 -16 -9 -21 -22 -6 -26 -40 -3 -36 6 2 9 -4 6 -12 -12
-29 -44 -6 -44 31 0 13 -4 26 -10 29 -19 12 -10 25 19 25 16 0 34 -7 41 -16z
m58 -312 c13 13 15 4 5 -30 -3 -13 -17 -28 -30 -33 -15 -5 -21 -14 -17 -21 4
-7 3 -8 -4 -4 -16 9 -15 45 1 79 10 22 14 24 23 12 8 -11 13 -12 22 -3z m1492
-103 c0 -5 -7 -9 -15 -9 -15 0 -20 12 -9 23 8 8 24 -1 24 -14z m-460 -29 c0
-5 -2 -10 -4 -10 -3 0 -8 5 -11 10 -3 6 -1 10 4 10 6 0 11 -4 11 -10z m-1812
-33 c2 -9 -3 -26 -11 -37 -13 -19 -14 -18 -14 20 0 40 18 52 25 17z m1608 -14
c-10 -10 -19 5 -10 18 6 11 8 11 12 0 2 -7 1 -15 -2 -18z m74 7 c0 -5 -7 -10
-15 -10 -8 0 -15 5 -15 10 0 6 7 10 15 10 8 0 15 -4 15 -10z m770 -280 c4 0
10 -9 13 -21 3 -12 10 -18 16 -14 6 3 11 2 11 -3 0 -22 -34 -22 -57 -1 -27 26
-31 54 -7 45 9 -3 19 -6 24 -6z"/>
<path d="M2160 3095 c0 -11 5 -27 10 -35 8 -12 10 -12 10 5 0 11 -5 27 -10 35
-8 12 -10 12 -10 -5z"/>
<path d="M1951 2874 c0 -11 3 -14 6 -6 3 7 2 16 -1 19 -3 4 -6 -2 -5 -13z"/>
<path d="M1960 2826 c0 -8 5 -18 10 -21 6 -3 10 1 10 9 0 8 -4 18 -10 21 -5 3
-10 -1 -10 -9z"/>
<path d="M2438 2874 c-5 -4 -8 -21 -7 -38 0 -30 0 -30 10 -7 11 27 8 57 -3 45z"/>
<path d="M1611 2744 c0 -11 3 -14 6 -6 3 7 2 16 -1 19 -3 4 -6 -2 -5 -13z"/>
<path d="M1831 2604 c0 -11 3 -14 6 -6 3 7 2 16 -1 19 -3 4 -6 -2 -5 -13z"/>
<path d="M2202 2630 c0 -19 2 -27 5 -17 2 9 2 25 0 35 -3 9 -5 1 -5 -18z"/>
<path d="M1581 2614 c0 -11 3 -14 6 -6 3 7 2 16 -1 19 -3 4 -6 -2 -5 -13z"/>
<path d="M1582 2410 c0 -14 2 -19 5 -12 2 6 2 18 0 25 -3 6 -5 1 -5 -13z"/>
<path d="M350 2000 c-12 -8 -11 -10 8 -10 12 0 22 5 22 10 0 13 -11 13 -30 0z"/>
<path d="M359 1944 c-12 -14 -11 -16 5 -13 11 2 21 10 24 17 5 17 -13 15 -29
-4z"/>
<path d="M765 2010 c3 -5 10 -10 16 -10 5 0 9 5 9 10 0 6 -7 10 -16 10 -8 0
-12 -4 -9 -10z"/>
<path d="M1128 1943 c6 -2 18 -2 25 0 6 3 1 5 -13 5 -14 0 -19 -2 -12 -5z"/>
<path d="M2080 140 c0 -5 5 -10 10 -10 6 0 10 5 10 10 0 6 -4 10 -10 10 -5 0
-10 -4 -10 -10z"/>
<path d="M1148 3 c7 -3 16 -2 19 1 4 3 -2 6 -13 5 -11 0 -14 -3 -6 -6z"/>
</g>
</svg>
