<?xml version="1.0" standalone="no"?>
<!DOCTYPE svg PUBLIC "-//W3C//DTD SVG 20010904//EN"
 "http://www.w3.org/TR/2001/REC-SVG-20010904/DTD/svg10.dtd">
<svg version="1.0" xmlns="http://www.w3.org/2000/svg"
 width="376.000000pt" height="546.000000pt" viewBox="0 0 376.000000 546.000000"
 preserveAspectRatio="xMidYMid meet">

<g transform="translate(0.000000,546.000000) scale(0.100000,-0.100000)"
fill="#000000" stroke="none">
<path d="M572 5365 c-233 -36 -377 -190 -411 -438 -8 -55 -11 -810 -11 -2493
l0 -2414 59 0 c33 0 61 -5 63 -10 2 -7 143 -9 412 -8 l409 3 -28 33 c-15 18
-25 35 -22 38 3 3 18 -13 33 -36 l29 -41 165 3 c91 1 187 6 214 11 32 5 52 5
59 -2 8 -8 154 -11 458 -11 l447 0 4 53 c2 28 5 266 7 527 2 465 11 596 39
634 5 6 15 32 22 58 12 46 44 88 57 75 3 -4 14 10 24 30 l17 38 1 -53 c1 -33
5 -51 11 -47 6 3 10 39 10 79 0 43 6 88 15 107 l14 34 1 -53 c0 -33 4 -51 10
-47 5 3 10 37 10 74 0 61 2 69 24 80 13 7 33 10 45 6 22 -7 22 -14 4 -62 -8
-21 29 -15 72 12 41 25 85 33 85 15 0 -13 -110 -670 -117 -697 -10 -42 12 -24
45 37 23 41 39 60 53 60 25 0 24 -17 -5 -81 -14 -29 -23 -56 -20 -60 2 -4 37
-5 78 -3 56 3 76 1 85 -10 11 -13 15 -12 32 5 26 26 49 24 49 -3 -1 -46 -27
-218 -34 -225 -11 -11 -41 12 -44 35 -5 35 -71 67 -99 49 -7 -5 -13 -21 -13
-38 0 -16 -4 -29 -8 -29 -12 0 -32 -46 -25 -54 4 -3 16 -6 27 -6 12 -1 39 -11
61 -24 44 -25 55 -59 36 -109 -12 -30 -31 -34 -64 -13 -26 17 -72 22 -110 11
-46 -12 -51 2 -37 102 16 119 16 120 55 133 30 10 33 14 25 30 -10 19 -11 19
-45 -1 -19 -12 -43 -18 -53 -15 -16 5 -20 -3 -30 -56 -6 -35 -15 -85 -18 -113
-4 -27 -14 -56 -23 -62 -13 -10 -13 -14 -3 -21 10 -7 10 -20 2 -58 -15 -75
-48 -254 -54 -301 l-6 -43 201 0 c170 0 200 2 190 14 -8 10 -8 21 -1 40 5 15
10 38 10 50 0 30 25 53 34 31 3 -8 10 -15 15 -15 16 0 41 56 41 91 0 27 -2 30
-15 19 -21 -17 -45 4 -45 39 0 55 33 200 48 206 24 9 32 -4 32 -51 0 -26 5
-44 11 -44 8 0 10 -14 6 -39 -3 -26 0 -46 9 -58 10 -13 13 -54 14 -150 l0
-133 135 0 c83 0 135 4 135 10 0 6 30 10 70 10 l70 0 -1 2103 c-1 2335 -6
2810 -34 2897 -55 176 -172 289 -347 337 -58 16 -171 17 -1323 19 -996 2
-1277 0 -1343 -11z m426 -127 c5 -7 13 -33 17 -58 11 -72 24 -105 53 -133 61
-59 37 -57 814 -57 670 0 715 2 753 19 71 32 115 104 115 187 0 54 9 56 232
52 180 -4 209 -7 258 -26 105 -41 170 -105 216 -212 18 -43 19 -87 22 -1234
l2 -1189 -27 -29 c-16 -16 -44 -39 -63 -51 -19 -11 -49 -35 -65 -52 -21 -22
-44 -34 -73 -38 l-42 -7 1 -158 c1 -86 4 -146 8 -132 4 15 15 26 28 28 12 2
24 13 27 27 6 25 107 79 171 91 l35 6 0 -713 0 -713 -77 -72 c-42 -40 -80 -71
-85 -68 -4 3 -8 0 -8 -5 0 -6 -17 -18 -37 -26 -21 -9 -41 -21 -45 -28 -5 -8
-11 -8 -15 -2 -5 6 -17 15 -28 21 -27 15 -25 47 3 59 l22 10 0 404 0 403 -40
-36 c-47 -42 -72 -45 -105 -12 -48 48 -64 185 -46 387 23 255 106 524 172 559
18 10 19 28 19 473 0 302 -4 457 -10 447 -5 -8 -10 -33 -11 -55 0 -22 -4 -51
-9 -65 l-7 -25 -6 25 c-3 14 -8 58 -10 98 -4 63 -2 74 14 83 26 14 25 55 -2
62 -25 7 -17 24 17 37 18 7 24 17 24 41 0 26 -3 30 -17 24 -10 -4 -35 -11 -55
-15 -49 -9 -68 -26 -68 -60 0 -38 -10 -43 -37 -18 -28 26 -33 22 -40 -31 -6
-41 -23 -48 -23 -10 0 29 -24 18 -28 -12 -2 -13 -19 -38 -38 -55 -31 -26 -36
-38 -39 -80 -7 -128 43 -734 64 -774 4 -8 8 -107 7 -218 -1 -112 2 -206 5
-208 10 -6 5 -306 -5 -322 -4 -7 -19 -17 -32 -22 -16 -6 -27 -20 -30 -39 -10
-50 -54 -53 -54 -4 0 15 -5 41 -12 59 -11 30 -14 32 -47 27 -20 -3 -41 -12
-48 -21 -8 -10 -32 -15 -70 -16 -51 -1 -58 1 -58 19 0 14 10 22 39 28 36 9 38
11 32 39 -3 17 -7 51 -8 77 l-1 46 -6 -45 -6 -45 -12 41 c-9 27 -21 45 -38 52
-14 6 -25 16 -25 21 0 21 31 140 44 172 12 28 15 30 19 14 2 -11 3 2 0 29 -4
46 -3 48 13 35 10 -8 37 -54 60 -104 24 -49 44 -85 44 -79 0 23 -54 142 -85
185 l-32 45 13 65 c8 35 15 99 16 141 3 64 0 81 -18 104 -32 44 -66 64 -114
68 -25 2 -50 4 -56 5 -7 1 -14 34 -18 84 -10 120 -18 178 -24 173 -8 -9 -13
-106 -5 -106 9 0 10 -156 1 -165 -5 -6 -16 161 -23 375 -1 52 -4 97 -5 100 -2
3 -7 -15 -11 -40 -5 -32 -7 -20 -4 45 3 63 1 85 -6 73 -5 -10 -11 -37 -13 -60
-2 -24 -7 -81 -10 -128 -4 -47 -9 -110 -11 -140 -6 -81 -24 -598 -28 -798 -2
-142 0 -171 11 -167 8 3 20 5 28 5 9 0 14 11 14 30 0 16 7 33 16 38 18 10 23
63 10 125 -9 48 11 58 54 25 30 -22 31 -26 28 -78 -3 -49 -1 -56 20 -65 27
-12 29 -32 3 -40 -15 -4 -19 -20 -25 -84 -3 -43 -3 -86 0 -96 6 -15 3 -16 -17
-9 -37 12 -64 10 -62 -3 4 -17 -62 -64 -79 -58 -9 4 -18 -1 -21 -9 -9 -24 -34
-19 -41 7 -10 36 -7 64 8 76 11 9 12 18 3 41 l-11 30 -129 0 c-112 0 -128 2
-117 15 6 8 9 23 5 35 -7 21 10 29 18 8 3 -8 6 -6 6 5 1 19 17 23 23 5 5 -13
149 -22 204 -13 l31 5 5 403 c2 221 1 436 -2 477 l-7 75 -3 -75 c-2 -62 -4
-69 -10 -40 -5 22 -8 -18 -9 -110 -2 -80 -6 -169 -10 -197 -4 -29 -5 -56 -2
-60 3 -5 4 -89 1 -188 -3 -110 -8 -169 -13 -152 -4 15 -14 27 -23 27 -11 0
-12 -4 -4 -19 16 -32 12 -37 -30 -36 -24 0 -40 -4 -40 -11 0 -16 -23 -24 -49
-17 -17 4 -20 2 -15 -11 4 -11 0 -16 -12 -17 -17 -1 -17 -2 -1 -6 22 -6 22
-22 0 -18 -10 2 -21 4 -25 4 -15 2 -8 44 10 57 16 13 16 13 0 14 -10 0 -18 7
-18 15 0 10 -11 15 -35 15 -39 0 -38 2 -37 -92 1 -39 -3 -58 -11 -58 -7 0 -4
-5 6 -11 24 -14 12 -29 -24 -29 -24 0 -49 -9 -79 -28 -2 -2 2 -7 10 -12 10 -6
11 -10 3 -10 -7 0 -20 11 -29 25 -18 28 -40 34 -30 9 5 -12 2 -15 -9 -10 -9 3
-15 1 -14 -7 3 -25 -1 -38 -11 -32 -5 3 -10 27 -10 53 0 41 3 49 27 60 15 6
42 12 59 12 18 0 36 4 39 10 9 15 -41 23 -103 17 -40 -4 -52 -3 -42 4 11 8 5
9 -22 7 -37 -4 -38 -3 -38 31 0 32 1 33 13 16 16 -21 39 -12 30 13 -4 12 -3
14 5 7 16 -15 142 -6 142 9 0 7 9 24 21 37 18 21 20 32 14 86 -7 68 1 77 39
48 15 -11 18 -23 14 -64 -4 -42 -2 -50 14 -54 23 -6 28 3 36 60 4 26 12 48 18
50 8 3 8 -11 1 -46 -9 -41 -8 -51 6 -66 9 -9 17 -26 17 -38 0 -17 2 -19 9 -8
6 8 19 12 36 9 19 -4 25 -2 21 8 -3 7 0 14 5 16 12 4 12 510 0 608 l-6 55 -34
-3 -34 -2 6 282 c6 275 18 390 47 463 29 71 154 448 176 530 31 116 41 243 22
269 -17 22 -58 14 -58 -12 0 -13 -2 -14 -9 -3 -7 10 -10 10 -16 1 -4 -7 -1
-16 6 -21 12 -7 12 -12 0 -31 -8 -13 -28 -49 -43 -81 -16 -32 -41 -70 -56 -83
l-27 -25 25 7 c14 4 30 14 37 23 6 9 14 13 18 9 9 -9 -23 -68 -36 -65 -11 2
-50 -90 -69 -163 -5 -19 -14 -53 -20 -75 -6 -22 -15 -53 -19 -70 -5 -20 -13
-30 -25 -29 -19 2 -53 -43 -41 -54 4 -4 10 -1 12 6 3 6 11 12 19 12 8 0 14 5
14 10 0 22 18 8 23 -17 8 -40 -4 -62 -17 -32 -9 22 -10 22 -14 -16 -2 -22 -9
-43 -15 -47 -9 -6 -9 -8 0 -8 18 0 3 -39 -19 -51 -13 -7 -18 -7 -14 -1 13 21
15 93 3 89 -7 -2 -14 -12 -16 -22 -5 -28 -52 -95 -62 -89 -5 3 -9 -2 -9 -11 0
-12 -6 -15 -19 -10 -13 4 -24 -1 -35 -17 -15 -22 -16 -22 -16 -2 0 45 113 339
194 504 25 52 46 101 46 110 0 8 -9 26 -19 40 -16 20 -22 22 -34 12 -11 -9
-17 -10 -22 -2 -11 17 -25 1 -25 -29 0 -72 -35 -215 -103 -418 -69 -204 -75
-231 -86 -351 -6 -72 -17 -145 -22 -162 -6 -17 -9 -45 -5 -61 3 -17 -1 -52 -8
-77 -8 -26 -22 -73 -32 -105 -19 -64 -68 -117 -109 -117 -14 0 -29 -8 -35 -21
-12 -21 -16 -332 -5 -349 3 -5 0 -46 -7 -91 -10 -61 -17 -83 -30 -87 -11 -2
-16 -13 -15 -30 2 -21 -3 -27 -18 -27 -15 0 -21 9 -27 44 -4 24 -14 54 -23 67
-12 19 -13 29 -4 45 8 16 14 18 22 10 6 -6 24 -11 39 -11 50 0 62 77 18 117
-13 13 -16 23 -10 33 13 20 13 73 0 86 -6 6 -6 22 0 44 16 56 12 87 -12 104
-28 20 -75 20 -108 1 -14 -8 -42 -14 -62 -15 -33 0 -41 -5 -62 -39 -14 -22
-30 -42 -35 -45 -16 -10 -54 -93 -49 -107 3 -8 13 -14 23 -14 24 0 30 -20 12
-37 -13 -11 -11 -15 16 -24 37 -13 80 4 114 44 25 30 53 24 53 -11 0 -17 -16
-38 -52 -68 -29 -24 -70 -60 -90 -81 -20 -20 -51 -39 -67 -43 -17 -4 -31 -10
-31 -13 0 -4 -22 -32 -50 -62 -30 -33 -50 -64 -50 -78 0 -13 -13 -35 -29 -50
-15 -15 -31 -42 -35 -60 -3 -19 -12 -48 -20 -65 -8 -18 -27 -61 -41 -97 -15
-36 -44 -96 -65 -135 -20 -38 -40 -80 -44 -92 -8 -25 -58 -109 -96 -163 -35
-49 -48 -70 -65 -105 -7 -16 -27 -41 -44 -55 -17 -14 -31 -33 -31 -42 0 -11
-8 -18 -19 -18 -20 0 -37 -32 -27 -49 3 -5 -1 -14 -9 -21 -8 -7 -15 -19 -15
-27 0 -8 -4 -12 -9 -9 -4 3 -22 -10 -40 -29 -17 -19 -36 -35 -41 -35 -5 0 -15
-20 -21 -44 -7 -28 -16 -43 -23 -40 -7 3 -18 -6 -25 -20 -8 -13 -22 -27 -32
-29 -18 -5 -19 15 -19 688 l0 692 58 25 c31 14 69 28 83 32 15 3 38 22 53 41
28 36 61 46 84 23 7 -7 12 -39 12 -75 l0 -64 35 3 c20 1 43 11 53 21 16 18 15
21 -5 57 -28 47 -33 144 -11 181 37 58 26 127 -32 209 -26 37 -47 37 -113 3
-29 -16 -79 -37 -112 -48 -45 -15 -65 -28 -82 -54 l-23 -34 0 1140 c0 777 3
1158 11 1199 28 154 124 256 279 298 73 19 413 22 428 4z m2142 -1736 c0 -12
-23 -32 -37 -32 -17 0 -17 27 0 33 19 8 37 8 37 -1z m-5 -362 c21 -17 19 -37
-4 -50 -11 -5 -22 -18 -25 -27 -4 -14 -17 -18 -48 -18 -36 0 -43 -3 -46 -21
-3 -21 -4 -21 -34 -6 -28 14 -32 14 -43 -1 -14 -20 -25 -12 -25 17 0 12 15 33
36 49 32 26 38 28 64 17 36 -15 60 -7 60 20 0 11 5 20 10 20 6 0 10 51 10 134
0 99 3 135 13 139 9 3 13 -28 15 -129 2 -101 6 -135 17 -144z m-196 94 c1 -36
5 -54 16 -58 8 -3 15 -9 15 -13 0 -12 -67 -53 -74 -46 -13 14 -5 58 15 79 24
26 19 57 -8 52 -24 -4 -23 17 2 46 17 20 21 21 27 7 4 -9 7 -39 7 -67z m152
-241 c-8 -15 -10 -15 -11 -2 0 17 10 32 18 25 2 -3 -1 -13 -7 -23z m-1171 -38
c0 -8 -4 -15 -10 -15 -5 0 -10 7 -10 15 0 8 5 15 10 15 6 0 10 -7 10 -15z
m-69 -18 c-13 -13 -26 -3 -16 12 3 6 11 8 17 5 6 -4 6 -10 -1 -17z m1129 -29
c0 -9 -4 -20 -10 -23 -6 -4 -10 9 -10 32 0 28 3 34 10 23 5 -8 10 -23 10 -32z
m69 -75 c0 -75 -4 -111 -9 -98 -12 29 -12 215 0 215 6 0 10 -45 9 -117z m-111
45 c-2 -23 -8 -43 -14 -45 -15 -5 -23 64 -10 77 20 20 27 9 24 -32z m72 -30
c0 -23 -3 -29 -9 -19 -8 12 -4 51 5 51 2 0 4 -15 4 -32z m-1210 -25 c0 -32
-11 -24 -14 11 -2 14 1 23 5 20 5 -3 9 -17 9 -31z m1200 -90 c0 -10 -5 -25
-10 -33 -7 -11 -10 -7 -10 18 0 17 5 32 10 32 6 0 10 -8 10 -17z m-1406 -145
c-9 -14 -23 2 -17 18 4 12 8 13 14 3 4 -7 5 -17 3 -21z m1448 5 c25 -22 23
-38 -7 -57 -42 -27 -57 -5 -32 47 14 32 15 32 39 10z m-644 -2 c11 -6 11 -15
0 -49 -17 -56 -28 -53 -28 8 0 50 4 57 28 41z m-1858 -4 c0 -2 -12 -14 -27
-28 -24 -22 -24 -13 0 19 8 11 27 17 27 9z m1357 -62 l-12 -50 -3 44 c-4 50 4
79 18 65 5 -5 4 -29 -3 -59z m-567 17 c0 -13 -12 -22 -22 -16 -10 6 -1 24 13
24 5 0 9 -4 9 -8z m567 -164 c-2 -13 -4 -5 -4 17 -1 22 1 32 4 23 2 -10 2 -28
0 -40z m1123 -18 c0 -5 -4 -10 -10 -10 -5 0 -10 5 -10 10 0 6 5 10 10 10 6 0
10 -4 10 -10z m-1314 -193 c9 3 14 -1 14 -15 0 -11 -6 -20 -12 -19 -42 1 -68
-4 -63 -13 3 -5 0 -10 -7 -10 -8 0 -6 -5 5 -11 21 -12 22 -45 1 -53 -19 -7
-10 -45 15 -63 14 -10 12 -12 -14 -18 -17 -3 -44 -10 -62 -14 -24 -7 -35 -5
-44 5 -15 19 -33 18 -25 -2 4 -10 2 -13 -6 -8 -8 5 -9 1 -4 -12 5 -12 4 -15
-2 -9 -6 6 -13 24 -17 42 -6 30 -4 32 32 42 50 14 58 14 73 -4 7 -8 18 -15 24
-15 6 0 2 7 -8 15 -11 8 -17 18 -13 21 10 11 -16 31 -37 28 -12 -2 -74 -5
-139 -7 -113 -4 -159 5 -100 19 15 4 36 14 46 22 13 11 17 12 17 2 0 -18 86
-7 110 15 21 19 68 14 82 -8 4 -7 8 2 8 19 0 40 22 59 66 56 l34 -3 2 48 2 48
3 -52 c3 -40 7 -51 19 -46z m351 1 c-3 -7 -5 -2 -5 12 0 14 2 19 5 13 2 -7 2
-19 0 -25z m943 -13 c0 -8 -2 -15 -4 -15 -2 0 -6 7 -10 15 -3 8 -1 15 4 15 6
0 10 -7 10 -15z m-1680 -24 c0 -5 -11 -11 -25 -13 -29 -6 -30 -5 -9 16 15 16
34 14 34 -3z m450 -22 c0 -5 -4 -9 -10 -9 -5 0 -10 7 -10 16 0 8 5 12 10 9 6
-3 10 -10 10 -16z m-63 -51 c-3 -7 -5 -2 -5 12 0 14 2 19 5 13 2 -7 2 -19 0
-25z m403 -99 c0 -6 -4 -7 -10 -4 -5 3 -10 11 -10 16 0 6 5 7 10 4 6 -3 10
-11 10 -16z m-740 -33 c0 -7 -6 -31 -14 -52 -7 -22 -11 -44 -9 -51 2 -6 -10
-47 -28 -90 -18 -42 -44 -125 -58 -183 -16 -66 -31 -105 -39 -104 -6 1 -30 2
-52 3 -22 0 -40 5 -40 10 0 6 19 9 43 8 l42 -2 30 120 c17 66 40 145 52 176
13 35 18 61 13 69 -6 9 -2 26 12 47 16 27 18 36 8 48 -10 13 -8 15 14 15 15 0
26 -6 26 -14z m345 -12 c24 -10 -1 -24 -42 -24 -40 0 -44 17 -5 23 15 2 28 5
29 6 1 0 9 -2 18 -5z m-189 -77 c1 -1 5 -45 10 -98 12 -124 -11 -312 -38 -317
-24 -5 -23 -19 3 -27 18 -6 20 -13 17 -71 -2 -52 -6 -63 -18 -58 -37 15 -63
14 -74 -2 -8 -11 -30 -18 -64 -20 -29 -1 -58 -6 -64 -11 -17 -11 -43 -13 -179
-13 -92 0 -119 -3 -129 -15 -7 -8 -22 -15 -34 -15 -41 0 -67 -13 -81 -40 -15
-28 -55 -48 -55 -26 0 6 8 28 18 47 10 20 28 64 41 100 13 35 27 68 31 73 5 4
11 -22 15 -58 8 -69 16 -77 56 -56 16 9 19 22 19 95 0 62 -4 88 -16 99 -8 9
-12 20 -9 26 8 13 85 13 85 1 0 -5 9 -13 21 -16 21 -7 21 -7 -2 -19 -15 -8
-23 -19 -21 -32 2 -18 2 -18 -10 1 -12 19 -13 19 -19 -10 -4 -16 -7 -45 -8
-64 -1 -33 0 -34 34 -28 19 3 48 15 64 26 35 26 79 27 96 4 12 -16 16 -15 49
20 37 39 48 60 21 37 -9 -8 -15 -9 -15 -2 0 6 8 17 19 24 10 7 20 27 23 43 29
170 86 345 113 345 6 0 20 16 31 35 16 30 23 35 44 30 14 -4 25 -7 26 -8z
m226 -37 c2 -22 1 -40 -3 -40 -3 0 -12 -19 -19 -41 -8 -23 -16 -37 -18 -31 -1
5 3 25 11 44 8 18 13 52 13 75 -1 52 11 47 16 -7z m-598 -23 c-1 -34 -2 -86
-3 -114 0 -29 -5 -53 -11 -53 -13 0 -13 186 0 211 6 10 12 19 13 19 1 0 1 -28
1 -63z m564 45 c2 -7 -3 -12 -12 -12 -9 0 -16 -6 -16 -12 0 -7 -7 -4 -16 7
-13 18 -13 20 3 27 23 8 36 5 41 -10z m-34 -71 c-3 -14 -7 -32 -7 -38 0 -7 -3
-13 -7 -13 -3 0 -6 -8 -7 -17 0 -10 -18 -72 -40 -138 -22 -66 -46 -150 -53
-186 -12 -70 -24 -98 -37 -86 -14 14 45 275 85 373 12 30 17 56 12 64 -5 8 -2
26 7 45 12 24 20 31 35 27 16 -4 18 -10 12 -31z m496 -15 c0 -8 -4 -18 -10
-21 -5 -3 -10 -12 -9 -18 0 -9 2 -9 6 1 7 18 50 15 58 -5 10 -24 17 -102 18
-195 1 -78 -7 -104 -22 -79 -6 9 -10 4 -14 -16 -7 -38 4 -52 17 -22 8 18 12
-131 14 -565 1 -324 0 -591 -3 -594 -2 -3 -13 6 -24 19 -18 21 -20 39 -21 152
0 71 4 126 8 123 5 -3 8 -29 7 -58 -1 -29 0 -38 2 -20 3 20 8 30 15 26 8 -5 9
6 3 37 -12 61 -13 152 -2 166 11 15 1 33 -19 33 -12 0 -14 67 -14 469 0 308 4
472 10 476 15 10 2 24 -20 22 -19 -1 -20 -10 -22 -272 -2 -148 -3 -301 -3
-340 -1 -38 -2 -223 -3 -409 -1 -187 -4 -337 -8 -334 -3 3 -5 306 -4 673 0
452 -3 664 -10 660 -5 -3 -22 -31 -36 -61 -24 -51 -47 -74 -60 -61 -7 6 52
175 72 205 17 26 74 32 74 8z m753 0 c6 -16 -11 -84 -26 -103 -5 -7 -19 -13
-31 -12 -20 0 -20 1 5 21 23 18 25 23 16 48 -6 15 -7 34 -4 44 8 20 33 21 40
2z m-895 -24 c-10 -2 -18 -9 -18 -17 0 -14 -28 -29 -47 -26 -14 2 -17 -11 -6
-23 11 -11 11 -88 0 -110 -25 -50 -72 -204 -98 -319 -16 -70 -29 -130 -29
-132 0 -3 -9 -5 -20 -5 -22 0 -24 11 -10 80 5 31 5 47 -3 52 -6 3 -10 27 -8
53 1 30 -3 51 -14 61 -30 31 -11 85 21 55 18 -17 54 -23 54 -9 0 7 16 51 35
97 25 61 32 87 23 92 -8 5 -4 24 15 67 15 33 27 65 27 71 0 6 8 12 18 13 9 0
22 2 29 2 6 1 15 4 19 8 4 4 12 4 18 0 7 -4 5 -8 -6 -10z m42 3 c0 -8 -4 -15
-10 -15 -5 0 -7 7 -4 15 4 8 8 15 10 15 2 0 4 -7 4 -15z m215 -427 c-4 -167
-4 -300 -1 -297 3 3 15 46 25 96 11 50 36 134 56 187 20 54 36 109 35 124 -5
76 1 183 10 177 5 -3 8 -25 5 -48 -5 -41 -4 -41 10 -17 8 14 14 32 15 41 0 19
20 29 56 29 33 0 43 -28 18 -49 -28 -23 -44 -67 -38 -100 4 -19 -8 -70 -40
-162 -26 -74 -60 -192 -77 -264 -34 -151 -43 -175 -64 -175 -13 0 -15 -43 -17
-332 l-2 -333 -6 340 c-7 498 -1 1085 12 1085 7 0 8 -90 3 -302z m-1056 126
c14 -13 -14 -13 -56 0 l-48 15 50 -5 c28 -3 52 -8 54 -10z m711 -150 c-12 -13
-11 -17 1 -24 9 -6 15 -5 17 4 2 7 18 13 37 14 28 1 35 -2 35 -17 0 -15 -5
-18 -22 -13 -17 4 -20 2 -15 -13 6 -13 3 -16 -8 -11 -9 3 -23 -3 -32 -14 -10
-11 -22 -20 -28 -20 -7 0 -18 -21 -26 -47 -8 -25 -20 -48 -26 -50 -17 -6 35
190 54 204 21 17 30 8 13 -13z m75 -94 c3 -5 1 -10 -4 -10 -6 0 -11 5 -11 10
0 6 2 10 4 10 3 0 8 -4 11 -10z m-44 -47 c5 -14 7 -28 4 -31 -8 -8 -34 30 -35
51 0 24 19 12 31 -20z m39 -43 c0 -5 -4 -10 -10 -10 -5 0 -10 5 -10 10 0 6 5
10 10 10 6 0 10 -4 10 -10z m-510 -141 c0 -18 -2 -19 -15 -9 -8 7 -15 16 -15
21 0 5 7 9 15 9 9 0 15 -9 15 -21z m-756 -50 c-3 -5 -13 -9 -22 -9 -10 0 -29
-7 -42 -16 -15 -9 -12 -3 9 15 29 26 70 34 55 10z m747 -86 c4 -33 -2 -38 -34
-29 -18 4 -17 6 4 35 12 17 24 30 25 28 1 -1 4 -17 5 -34z m-883 -55 c-11 -35
-51 -83 -82 -100 -11 -6 1 18 30 61 53 77 69 89 52 39z m355 -13 c45 -9 59
-25 20 -25 -15 0 -59 -3 -98 -7 -66 -6 -69 -5 -55 11 19 23 50 36 75 31 11 -2
37 -7 58 -10z m1224 -162 c-2 -21 -4 -6 -4 32 0 39 2 55 4 38 2 -18 2 -50 0
-70z m-1272 22 c113 -9 158 -16 187 -31 15 -8 42 -14 60 -14 39 0 72 -16 48
-23 -8 -3 -91 -10 -184 -17 l-170 -12 -48 52 c-26 29 -48 54 -48 57 0 3 19 3
43 -1 23 -3 74 -8 112 -11z m-174 -65 c29 -16 23 -30 -15 -30 -47 0 -58 35
-13 39 5 1 17 -4 28 -9z m1676 -92 c-3 -8 -6 -5 -6 6 -1 11 2 17 5 13 3 -3 4
-12 1 -19z m-1588 -69 c17 -28 31 -59 31 -70 0 -10 5 -19 10 -19 6 0 10 -4 10
-10 0 -5 -7 -10 -15 -10 -8 0 -15 3 -15 8 0 4 -20 38 -45 75 -25 38 -45 71
-45 73 0 2 8 4 19 4 11 0 30 -19 50 -51z m426 41 c3 -5 20 -10 37 -10 33 0 68
-24 68 -47 0 -8 -12 -13 -36 -13 -22 0 -33 -4 -29 -10 4 -6 29 -10 56 -9 36 2
54 -2 70 -17 l21 -19 -48 -7 c-27 -3 -118 -10 -201 -14 -140 -7 -155 -6 -173
11 -19 17 -19 19 -4 37 16 17 16 18 -9 18 -18 0 -35 12 -57 40 l-31 39 63 4
c143 8 267 7 273 -3z m1625 -56 c6 -14 10 -35 10 -46 0 -24 27 -58 45 -58 6 0
17 12 24 26 7 16 18 24 29 22 15 -3 17 -14 15 -87 -1 -47 -6 -88 -11 -93 -17
-17 -104 3 -129 28 -13 13 -30 24 -37 24 -19 0 -39 27 -31 40 4 7 9 38 11 71
2 32 8 68 14 79 15 29 48 25 60 -6z m-1900 -194 c0 -5 -2 -10 -4 -10 -3 0 -8
5 -11 10 -3 6 -1 10 4 10 6 0 11 -4 11 -10z m1427 -117 c-3 -10 -5 -2 -5 17 0
19 2 27 5 18 2 -10 2 -26 0 -35z m-1064 20 c-7 -2 -21 -2 -30 0 -10 3 -4 5 12
5 17 0 24 -2 18 -5z m144 -9 c-3 -3 -12 -4 -19 -1 -8 3 -5 6 6 6 11 1 17 -2
13 -5z m-124 -11 c-13 -2 -35 -2 -50 0 -16 2 -5 4 22 4 28 0 40 -2 28 -4z m30
-20 c-18 -2 -48 -2 -65 0 -18 2 -4 4 32 4 36 0 50 -2 33 -4z m332 -3 c3 -6 -4
-10 -17 -10 -18 0 -20 2 -8 10 19 12 18 12 25 0z"/>
<path d="M3181 4414 c1 -68 4 -94 12 -91 8 2 13 36 15 95 2 76 0 92 -12 92
-12 0 -15 -18 -15 -96z"/>
<path d="M3112 4212 c-12 -57 -22 -108 -22 -115 0 -22 20 17 20 40 0 12 14 36
30 53 36 37 37 31 5 -54 -14 -37 -25 -68 -25 -70 0 -2 9 -6 20 -9 19 -5 19 -7
3 -63 -19 -70 -29 -84 -55 -84 -18 0 -20 5 -14 32 3 17 4 30 2 27 -10 -10 -66
-162 -62 -167 3 -3 30 11 61 32 36 24 60 48 70 72 8 19 19 33 24 30 21 -13 41
44 41 115 0 70 0 71 -24 65 -14 -3 -27 -3 -29 1 -7 11 33 113 44 113 5 0 9 12
9 28 l-1 27 -18 -22 c-10 -12 -21 -19 -25 -16 -3 4 -12 -1 -19 -11 -12 -16
-13 -14 -9 17 9 79 -6 55 -26 -41z"/>
<path d="M2344 4184 c0 -52 2 -94 5 -94 3 0 17 20 30 44 20 39 22 49 12 79 -7
19 -19 42 -29 50 -16 14 -17 9 -18 -79z"/>
<path d="M2592 4040 c0 -14 2 -19 5 -12 2 6 2 18 0 25 -3 6 -5 1 -5 -13z"/>
<path d="M1721 3904 c-12 -48 -19 -89 -17 -91 10 -10 27 10 51 58 24 46 24 51
11 84 -8 19 -17 35 -19 35 -2 0 -14 -39 -26 -86z"/>
<path d="M2582 3965 c0 -16 2 -22 5 -12 2 9 2 23 0 30 -3 6 -5 -1 -5 -18z"/>
<path d="M2601 3944 c0 -11 3 -14 6 -6 3 7 2 16 -1 19 -3 4 -6 -2 -5 -13z"/>
<path d="M2591 3904 c0 -11 3 -14 6 -6 3 7 2 16 -1 19 -3 4 -6 -2 -5 -13z"/>
<path d="M3173 3868 c-13 -6 -25 -18 -28 -28 -3 -9 -30 -25 -62 -36 -38 -12
-61 -27 -69 -42 -6 -13 -21 -30 -33 -38 -11 -8 -21 -22 -21 -30 0 -8 -6 -17
-14 -20 -15 -6 -64 -189 -54 -200 4 -3 16 -1 27 6 15 7 21 21 21 43 0 65 13
110 32 115 10 2 18 11 18 18 0 8 9 23 21 35 16 16 18 23 9 35 -13 15 -10 17
37 27 20 4 22 1 20 -26 -2 -24 -7 -32 -21 -32 -23 0 -32 -21 -17 -39 17 -20 2
-76 -20 -76 -12 0 -19 -7 -19 -20 0 -29 34 -26 54 5 9 14 25 25 35 25 17 0 24
11 49 70 10 25 11 25 11 -7 1 -18 6 -33 11 -33 12 0 9 -13 25 105 7 55 16 112
20 128 8 29 2 32 -32 15z"/>
<path d="M1476 3837 c-10 -22 -15 -44 -13 -50 3 -7 12 5 21 26 10 22 15 44 13
50 -3 7 -12 -5 -21 -26z"/>
<path d="M2531 3854 c0 -11 3 -14 6 -6 3 7 2 16 -1 19 -3 4 -6 -2 -5 -13z"/>
<path d="M2565 3859 c-4 -6 -5 -12 -2 -15 2 -3 7 2 10 11 7 17 1 20 -8 4z"/>
<path d="M2512 3744 c-1 -12 -4 -37 -7 -55 -5 -31 -5 -32 5 -9 6 13 9 38 7 55
-2 18 -4 21 -5 9z"/>
<path d="M3197 3703 c-2 -21 0 -42 4 -47 5 -6 9 10 9 37 0 57 -6 61 -13 10z"/>
<path d="M1166 3688 c-26 -40 -89 -213 -174 -478 -30 -94 -52 -238 -52 -343 0
-60 -9 -75 -64 -106 -28 -16 -47 -20 -73 -15 -21 4 -44 2 -59 -6 -37 -20 -45
-61 -34 -180 9 -108 20 -153 40 -165 7 -4 9 -22 5 -50 -8 -47 6 -85 31 -85 23
0 36 48 28 106 -6 52 10 154 25 154 9 0 41 -66 41 -85 0 -8 9 -19 19 -24 20
-11 31 2 31 39 0 38 112 234 160 280 l47 45 -8 75 c-4 41 -11 125 -15 185 -8
130 5 188 88 387 48 118 50 126 45 191 -3 38 -11 75 -18 83 -17 21 -47 17 -63
-8z"/>
<path d="M2962 3540 c0 -19 2 -27 5 -17 2 9 2 25 0 35 -3 9 -5 1 -5 -18z"/>
<path d="M1228 2884 l-16 -65 32 7 c17 3 32 7 34 9 5 4 -20 105 -27 109 -4 3
-14 -24 -23 -60z"/>
<path d="M2552 2915 c0 -16 2 -22 5 -12 2 9 2 23 0 30 -3 6 -5 -1 -5 -18z"/>
<path d="M2258 2880 c2 -16 6 -30 8 -30 2 0 4 14 4 30 0 17 -4 30 -8 30 -5 0
-7 -13 -4 -30z"/>
<path d="M1155 2881 c-6 -10 25 -31 44 -31 6 0 11 9 11 20 0 15 -7 20 -24 20
-14 0 -27 -4 -31 -9z"/>
<path d="M1296 2774 c-24 -20 -55 -37 -77 -40 -20 -4 -49 -14 -63 -24 l-27
-17 74 -6 c41 -4 89 -2 108 3 19 6 47 10 63 10 27 0 28 2 23 36 -6 38 -32 74
-51 74 -6 -1 -29 -16 -50 -36z"/>
<path d="M2152 2408 c1 -320 1 -328 21 -328 19 0 19 5 12 308 -4 169 -10 309
-14 312 -5 3 -11 12 -14 20 -3 8 -6 -132 -5 -312z"/>
<path d="M517 2233 c-12 -11 -8 -63 6 -68 6 -2 29 -6 50 -10 71 -12 72 -61 5
-204 -37 -80 -49 -167 -24 -177 9 -4 19 -4 21 -2 3 2 16 47 29 99 29 117 94
250 129 266 28 13 49 0 40 -23 -3 -8 0 -14 5 -14 12 0 82 87 82 101 0 10 -1
10 -75 15 -27 1 -70 5 -95 8 -30 4 -51 1 -63 -8 -21 -16 -57 -10 -57 10 0 14
-41 20 -53 7z"/>
<path d="M1926 2192 c-2 -4 -1 -23 4 -42 l8 -35 1 43 c1 41 -3 50 -13 34z"/>
<path d="M3290 2110 c0 -19 3 -21 12 -12 9 9 9 15 0 24 -9 9 -12 7 -12 -12z"/>
<path d="M2632 2095 c0 -16 2 -22 5 -12 2 9 2 23 0 30 -3 6 -5 -1 -5 -18z"/>
<path d="M2160 2050 c0 -5 7 -10 15 -10 8 0 15 5 15 10 0 6 -7 10 -15 10 -8 0
-15 -4 -15 -10z"/>
<path d="M895 2041 c-3 -5 -1 -12 4 -15 5 -3 11 1 15 9 6 16 -9 21 -19 6z"/>
<path d="M838 1997 c-16 -13 -15 -67 3 -67 5 0 6 -6 3 -13 -7 -19 18 -38 36
-27 12 7 11 12 -5 30 -19 21 -19 21 6 15 23 -6 27 -3 33 26 7 38 9 35 -29 43
-18 3 -37 0 -47 -7z"/>
<path d="M3288 1954 c-10 -9 -10 -100 -2 -183 5 -44 11 -61 22 -61 12 0 13 8
7 43 -4 23 -11 80 -14 125 -3 46 -9 80 -13 76z"/>
<path d="M755 1913 c-11 -2 -25 -14 -30 -26 -14 -30 25 -53 58 -34 12 7 23 13
25 13 2 1 0 13 -4 28 -6 26 -10 27 -49 19z"/>
<path d="M2287 1883 c-5 -8 11 -59 16 -52 1 2 8 12 15 21 11 14 10 18 -7 27
-11 6 -22 8 -24 4z"/>
<path d="M2342 1838 c2 -6 10 -14 16 -16 7 -2 10 2 6 12 -7 18 -28 22 -22 4z"/>
<path d="M749 1784 c-6 -8 -18 -14 -25 -14 -17 0 -17 -1 -4 -35 7 -19 15 -25
26 -21 8 3 24 1 35 -4 16 -9 21 -7 29 15 14 37 13 38 -19 57 -26 14 -32 14
-42 2z"/>
<path d="M666 1713 c-11 -11 -6 -23 9 -23 8 0 15 4 15 9 0 13 -16 22 -24 14z"/>
<path d="M752 1651 c4 -13 18 -16 19 -4 0 4 -5 9 -11 12 -7 2 -11 -2 -8 -8z"/>
<path d="M720 1630 c0 -5 5 -10 10 -10 6 0 10 5 10 10 0 6 -4 10 -10 10 -5 0
-10 -4 -10 -10z"/>
<path d="M732 1588 c6 -18 28 -21 28 -4 0 9 -7 16 -16 16 -9 0 -14 -5 -12 -12z"/>
<path d="M2096 1674 c-4 -9 -4 -19 -1 -22 2 -3 7 3 11 12 4 9 4 19 1 22 -2 3
-7 -3 -11 -12z"/>
<path d="M2076 1625 c-3 -9 -6 -22 -5 -28 0 -7 5 -1 10 12 5 13 8 26 5 28 -2
2 -6 -3 -10 -12z"/>
<path d="M2216 1474 c-4 -9 -4 -19 -1 -22 2 -3 7 3 11 12 4 9 4 19 1 22 -2 3
-7 -3 -11 -12z"/>
<path d="M2202 1215 c1 -63 5 -115 10 -115 7 0 13 57 10 105 0 11 -2 44 -3 73
-1 28 -5 52 -10 52 -4 0 -7 -52 -7 -115z"/>
<path d="M2202 975 c-2 -47 1 -75 8 -75 6 0 10 30 10 75 0 41 -3 75 -8 75 -4
0 -8 -34 -10 -75z"/>
<path d="M2200 839 c0 -14 7 -34 15 -45 15 -18 16 -17 9 16 -8 44 -24 63 -24
29z"/>
<path d="M2200 755 c0 -8 5 -15 10 -15 6 0 10 7 10 15 0 8 -4 15 -10 15 -5 0
-10 -7 -10 -15z"/>
<path d="M2221 374 c0 -11 3 -14 6 -6 3 7 2 16 -1 19 -3 4 -6 -2 -5 -13z"/>
<path d="M2673 1135 c0 -44 2 -61 4 -37 2 23 2 59 0 80 -2 20 -4 1 -4 -43z"/>
<path d="M2574 1000 c0 -52 1 -74 3 -47 2 26 2 68 0 95 -2 26 -3 4 -3 -48z"/>
<path d="M2550 830 c0 -5 5 -10 10 -10 6 0 10 5 10 10 0 6 -4 10 -10 10 -5 0
-10 -4 -10 -10z"/>
<path d="M2590 811 c0 -6 5 -13 10 -16 6 -3 10 1 10 9 0 9 -4 16 -10 16 -5 0
-10 -4 -10 -9z"/>
<path d="M2782 755 c-7 -14 -12 -38 -12 -52 0 -25 1 -25 30 12 23 29 28 41 19
51 -16 20 -24 17 -37 -11z"/>
<path d="M2700 760 c0 -5 5 -10 10 -10 6 0 10 5 10 10 0 6 -4 10 -10 10 -5 0
-10 -4 -10 -10z"/>
<path d="M2700 670 c0 -5 5 -10 10 -10 6 0 10 5 10 10 0 6 -4 10 -10 10 -5 0
-10 -4 -10 -10z"/>
<path d="M3096 69 c-2 -8 -7 -26 -10 -41 -6 -27 -5 -28 34 -28 34 0 42 4 52
25 14 31 5 42 -40 51 -22 5 -33 2 -36 -7z"/>
<path d="M2472 30 c0 -19 2 -27 5 -17 2 9 2 25 0 35 -3 9 -5 1 -5 -18z"/>
</g>
</svg>
